<?xml version="1.0" encoding="utf-8"?>
<!-- Generator: Adobe Illustrator 15.1.0, SVG Export Plug-In . SVG Version: 6.00 Build 0)  -->
<!DOCTYPE svg PUBLIC "-//W3C//DTD SVG 1.1//EN" "http://www.w3.org/Graphics/SVG/1.1/DTD/svg11.dtd">
<svg version="1.1" id="Layer_1" xmlns="http://www.w3.org/2000/svg" xmlns:xlink="http://www.w3.org/1999/xlink" x="0px" y="0px"
	 width="32px" height="32px" viewBox="0 0 32 32" enable-background="new 0 0 32 32" xml:space="preserve">
<g>
	<path fill="#FFFFFF" d="M29.143,19.119v-6.237v-0.085H2.998c-0.054,0-0.1-0.025-0.138-0.065v0.065v6.408v5.273
		c0,1.307,0.337,2.273,1.001,2.871c1.019,0.916,2.616,0.793,2.628,0.793l0.134-0.008h18.864c1.128,0,1.971-0.301,2.574-0.92
		c1.089-1.109,1.082-2.906,1.081-2.924V19.119z M29.143,24.291c0.001,0.018,0.008,1.814-1.081,2.924
		c-0.604,0.619-1.446,0.92-2.574,0.92H6.624L6.49,28.143c-0.013,0-1.61,0.123-2.628-0.793c-0.665-0.598-1.001-1.564-1.001-2.871
		v-5.273v-6.408v-0.065c0.038,0.04,0.084,0.065,0.138,0.065h26.145v0.085v6.237V24.291z M31.689,19.119v-6.237V7.76
		c0.003-0.115,0.038-2.873-1.808-4.758c-1.096-1.12-2.572-1.685-4.395-1.685h-0.261v4.171c0.546,0.368,0.905,0.99,0.905,1.696
		c0,1.126-0.913,2.04-2.039,2.04c-1.128,0-2.04-0.913-2.04-2.04c0-0.665,0.317-1.254,0.809-1.627V1.317H9.141v4.241
		C9.633,5.931,9.95,6.521,9.95,7.185c0,1.126-0.913,2.04-2.041,2.04c-1.126,0-2.04-0.913-2.04-2.04c0-0.706,0.359-1.329,0.904-1.696
		V1.317H6.675C6.2,1.28,3.883,1.207,2.159,2.76C0.934,3.859,0.312,5.462,0.312,7.52v5.277v6.408v5.273
		c0,2.063,0.622,3.664,1.847,4.766c1.43,1.283,3.269,1.453,4.125,1.453c0.175,0,0.311-0.01,0.392-0.014h18.812
		c1.822,0,3.299-0.568,4.395-1.684c1.846-1.885,1.811-4.645,1.808-4.738V19.119z M28.062,27.215c-0.604,0.619-1.446,0.92-2.574,0.92
		H6.624L6.49,28.143c-0.013,0-1.61,0.123-2.628-0.793c-0.665-0.598-1.001-1.564-1.001-2.871v-5.273v-6.408v-0.065
		c0.038,0.04,0.084,0.065,0.138,0.065h26.145v0.085v6.237v5.172C29.144,24.309,29.15,26.105,28.062,27.215z M16.704,24.254v0.994
		c0,0.115-0.094,0.209-0.211,0.209h-1.165c-0.116,0-0.21-0.094-0.21-0.209v-0.943c-0.529-0.031-0.964-0.105-1.344-0.199
		c-0.106-0.033-0.203-0.096-0.203-0.213v-1.037c0-0.115,0.097-0.201,0.203-0.201c0.009,0,0.009,0,0.02,0
		c0.435,0.055,1.504,0.129,2,0.129c0.73,0,0.952-0.256,0.952-0.742c0-0.307-0.147-0.477-0.698-0.805l-1.459-0.867
		c-0.985-0.582-1.259-1.25-1.259-2.021c0-0.961,0.454-1.755,1.789-1.989v-0.909c0-0.116,0.095-0.212,0.21-0.212h1.165
		c0.117,0,0.211,0.097,0.211,0.212v0.867c0.625,0.042,1.259,0.127,1.544,0.2c0.106,0.032,0.202,0.097,0.202,0.202v1.047
		c0,0.105-0.086,0.191-0.191,0.191c-0.011,0-0.011,0-0.021,0c-0.656-0.064-1.522-0.117-2.242-0.117c-0.582,0-0.815,0.17-0.815,0.561
		c0,0.266,0.139,0.436,0.71,0.742l1.342,0.729c1.09,0.594,1.439,1.291,1.439,2.148C18.672,22.961,18.154,23.955,16.704,24.254z"/>
</g>
</svg>
