<?xml version="1.0" encoding="utf-8"?>
<!-- Generator: Adobe Illustrator 15.1.0, SVG Export Plug-In . SVG Version: 6.00 Build 0)  -->
<!DOCTYPE svg PUBLIC "-//W3C//DTD SVG 1.1//EN" "http://www.w3.org/Graphics/SVG/1.1/DTD/svg11.dtd">
<svg version="1.1" id="Layer_1" xmlns="http://www.w3.org/2000/svg" xmlns:xlink="http://www.w3.org/1999/xlink" x="0px" y="0px"
	 width="32px" height="32px" viewBox="0 0 32 32" enable-background="new 0 0 32 32" xml:space="preserve">
<g>
	<g>
		<path fill="#FFFFFF" d="M16.001,2.096c3.713,0,7.206,1.446,9.83,4.073c2.628,2.625,4.073,6.118,4.073,9.832
			c0,3.713-1.445,7.205-4.073,9.83c-2.624,2.627-6.117,4.073-9.83,4.073c-3.714,0-7.207-1.446-9.834-4.073
			c-2.625-2.625-4.071-6.117-4.071-9.83c0-3.714,1.446-7.207,4.071-9.832C8.794,3.542,12.287,2.096,16.001,2.096 M16.001,0
			C7.162,0,0,7.162,0,16.001C0,24.838,7.162,32,16.001,32C24.838,32,32,24.838,32,16.001C32,7.162,24.838,0,16.001,0L16.001,0z"/>
	</g>
	<g>
		<defs>
			<path id="SVGID_1_" d="M32,16.001C32,24.838,24.838,32,16.001,32C7.162,32,0,24.838,0,16.001C0,7.162,7.162,0,16.001,0
				C24.838,0,32,7.162,32,16.001z"/>
		</defs>
		<clipPath id="SVGID_2_">
			<use xlink:href="#SVGID_1_"  overflow="visible"/>
		</clipPath>
		<g clip-path="url(#SVGID_2_)">
			<g>
				<path fill="#FFFFFF" d="M2.328,30.034c-6.203-9.313-6.203-18.757,0-28.068l1.744,1.162c-5.77,8.661-5.77,17.082,0,25.744
					L2.328,30.034z"/>
			</g>
			<g>
				<path fill="#FFFFFF" d="M8.59,32.602c-1.513-5.506-2.277-11.093-2.277-16.601c0-5.51,0.765-11.095,2.277-16.6l2.021,0.554
					c-2.922,10.646-2.922,21.442,0,32.092L8.59,32.602z"/>
			</g>
			<g>
				<rect x="14.952" y="-1.279" fill="#FFFFFF" width="2.097" height="34.559"/>
			</g>
			<g>
				<path fill="#FFFFFF" d="M23.411,32.602l-2.021-0.555c2.921-10.649,2.921-21.445,0-32.092l2.021-0.554
					c1.512,5.505,2.277,11.09,2.277,16.6C25.688,21.509,24.923,27.096,23.411,32.602z"/>
			</g>
			<g>
				<path fill="#FFFFFF" d="M29.672,30.034l-1.744-1.162c5.77-8.662,5.77-17.083,0-25.744l1.744-1.162
					C35.875,11.277,35.875,20.722,29.672,30.034z"/>
			</g>
		</g>
	</g>
</g>
</svg>
