<?xml version="1.0" encoding="utf-8"?>
<!-- Generator: Adobe Illustrator 15.1.0, SVG Export Plug-In . SVG Version: 6.00 Build 0)  -->
<!DOCTYPE svg PUBLIC "-//W3C//DTD SVG 1.1//EN" "http://www.w3.org/Graphics/SVG/1.1/DTD/svg11.dtd">
<svg version="1.1" id="Layer_1" xmlns="http://www.w3.org/2000/svg" xmlns:xlink="http://www.w3.org/1999/xlink" x="0px" y="0px"
	 width="10px" height="21px" viewBox="0 0 10 21" enable-background="new 0 0 10 21" xml:space="preserve">
<path fill="#5197BA" d="M2.55,20.5v-9.38H0V7.74h2.55V4.85c0-2.27,1.51-4.35,4.991-4.35c1.398,0,2.439,0.13,2.439,0.13L9.9,3.79
	c0,0-1.061-0.011-2.221-0.011c-1.25,0-1.449,0.561-1.449,1.49V7.74H10l-0.16,3.38H6.23v9.38H2.55z"/>
<path fill="#FFFFFF" d="M2.55,20.793v-9.38H0v-3.38h2.55V5.143c0-2.27,1.511-4.35,4.991-4.35c1.398,0,2.439,0.13,2.439,0.13
	L9.9,4.083c0,0-1.061-0.011-2.221-0.011c-1.25,0-1.449,0.561-1.449,1.49v2.471H10l-0.16,3.38H6.23v9.38H2.55z"/>
</svg>
