<?xml version="1.0" encoding="utf-8"?>
<!-- Generator: Adobe Illustrator 15.1.0, SVG Export Plug-In . SVG Version: 6.00 Build 0)  -->
<!DOCTYPE svg PUBLIC "-//W3C//DTD SVG 1.1//EN" "http://www.w3.org/Graphics/SVG/1.1/DTD/svg11.dtd">
<svg version="1.1" id="Layer_1" xmlns="http://www.w3.org/2000/svg" xmlns:xlink="http://www.w3.org/1999/xlink" x="0px" y="0px"
	 width="32px" height="32px" viewBox="0 0 32 32" enable-background="new 0 0 32 32" xml:space="preserve">
<g>
	<g>
		<path fill="#FFFFFF" d="M14.838,24.092h-1.043c-0.225,0-0.407-0.183-0.407-0.407v-6.785H6.396v6.785
			c0,0.225-0.184,0.407-0.409,0.407H4.945c-0.224,0-0.408-0.183-0.408-0.407V9.315c0-0.225,0.185-0.41,0.408-0.41h1.042
			c0.226,0,0.409,0.186,0.409,0.41v5.928h6.991V9.315c0-0.225,0.183-0.41,0.407-0.41h1.043c0.225,0,0.408,0.186,0.408,0.41v14.369
			C15.246,23.909,15.063,24.092,14.838,24.092z"/>
		<path fill="#FFFFFF" d="M21.269,24.234c-1.555,0-3.129-0.1-3.722-0.202c-0.265-0.042-0.428-0.205-0.428-0.512V9.479
			c0-0.287,0.163-0.473,0.428-0.512c0.593-0.102,2.167-0.204,3.722-0.204c3.779,0,6.192,1.942,6.192,6.356v2.758
			C27.461,22.253,25.048,24.234,21.269,24.234z M25.602,15.12c0-3.7-1.882-4.762-4.333-4.762c-0.962,0-1.594,0.02-2.27,0.061v12.184
			c0.654,0.038,1.308,0.038,2.27,0.038c2.451,0,4.333-1.082,4.333-4.763V15.12z"/>
	</g>
	<g>
		<path fill="#FFFFFF" d="M28.021,28.222H3.978C1.782,28.222,0,26.436,0,24.243V8.757c0-2.193,1.782-3.979,3.978-3.979h24.044
			C30.215,4.778,32,6.563,32,8.757v15.486C32,26.436,30.215,28.222,28.021,28.222z M3.978,6.506c-1.242,0-2.251,1.011-2.251,2.251
			v15.486c0,1.242,1.009,2.251,2.251,2.251h24.044c1.24,0,2.251-1.009,2.251-2.251V8.757c0-1.24-1.011-2.251-2.251-2.251H3.978z"/>
	</g>
</g>
</svg>
