<?xml version="1.0" encoding="utf-8"?>
<!-- Generator: Adobe Illustrator 15.1.0, SVG Export Plug-In . SVG Version: 6.00 Build 0)  -->
<!DOCTYPE svg PUBLIC "-//W3C//DTD SVG 1.1//EN" "http://www.w3.org/Graphics/SVG/1.1/DTD/svg11.dtd">
<svg version="1.1" id="Layer_1" xmlns="http://www.w3.org/2000/svg" xmlns:xlink="http://www.w3.org/1999/xlink" x="0px" y="0px"
	 width="32px" height="32px" viewBox="0 0 32 32" enable-background="new 0 0 32 32" xml:space="preserve">
<g>
	<path fill="#FFFFFF" d="M31.983,4.76l-0.299-2.987c-0.021-0.234-0.216-0.405-0.431-0.381l-30.9,3.412
		C0.208,4.821,0.089,4.921,0.035,5.058L0,5.046v4.024h0.014L0,11.597c0,0.039,0.005,0.077,0.014,0.114
		c-0.004,0.069-0.008,0.137-0.008,0.207L0.003,26.832c0.003,1.341,1.041,2.435,2.314,2.435l27.214,0.002v-0.002
		c1.282,0,2.313-1.094,2.313-2.435l0.004-14.915c0-0.076-0.004-0.151-0.01-0.224c0.006-0.031,0.01-0.063,0.01-0.097l0.014-3.004
		c0-0.236-0.178-0.426-0.396-0.426H5.041L31.63,5.229C31.845,5.204,32.004,4.995,31.983,4.76z M28.803,8.597h2.685l-1.573,2.996
		H27.23L28.803,8.597z M23.438,8.597h2.682l-1.573,2.996h-2.682L23.438,8.597z M18.069,8.597h2.684l-1.573,2.996h-2.683
		L18.069,8.597z M12.703,8.597h2.683l-1.572,2.996h-2.685L12.703,8.597z M15.993,14.064c3.205,0,5.803,2.813,5.803,6.282
		c0,3.468-2.599,6.279-5.803,6.279s-5.802-2.812-5.802-6.279C10.19,16.877,12.788,14.064,15.993,14.064z M7.335,8.597h2.683
		l-1.573,2.996H5.761L7.335,8.597z M3.078,11.593H0.395l1.572-2.996h2.686L3.078,11.593z M2.242,8.041L0.395,5.233l2.671-0.295
		l1.846,2.81L2.242,8.041z M7.58,7.452L5.734,4.643l2.669-0.295l1.847,2.809L7.58,7.452z M12.92,6.862l-1.847-2.81l2.67-0.294
		l1.847,2.809L12.92,6.862z M18.26,6.272l-1.846-2.809l2.669-0.296l1.846,2.808L18.26,6.272z M23.599,5.682l-1.846-2.809
		l2.669-0.295l1.849,2.81L23.599,5.682z M28.938,5.093l-1.847-2.81l2.671-0.295l1.845,2.809L28.938,5.093z"/>
	<path fill="#FFFFFF" d="M15.993,25.579c2.67,0,4.835-2.343,4.835-5.233c0-2.892-2.165-5.234-4.835-5.234
		c-2.671,0-4.836,2.342-4.836,5.234C11.157,23.236,13.321,25.579,15.993,25.579z M16.557,18.441l0.094,0.004
		c0.208,0.009,0.553,0.025,0.653,0.217c0.017,0.028,0.043,0.044,0.073,0.044c0.005,0,0.01,0,0.016,0
		c0.035-0.009,0.061-0.038,0.065-0.075c0.02-0.139,0.034-0.34,0.043-0.599c0.029-0.75,0.086-0.776,0.235-0.849
		c0.063-0.032,0.146-0.07,0.249-0.184c0.174-0.189,0.146-0.357,0.114-0.439c-0.056-0.146-0.197-0.235-0.308-0.235
		c-0.001,0-0.03,0.002-0.03,0.002c-0.067,0-0.135-0.031-0.206-0.066c-0.076-0.035-0.153-0.073-0.238-0.073
		c-0.025,0-0.049,0.003-0.071,0.009c-0.094,0.026-0.114,0.101-0.136,0.18c-0.024,0.09-0.052,0.194-0.204,0.236
		c-0.032,0.008-0.064,0.011-0.095,0.011c-0.258,0.001-0.428-0.271-0.475-0.352c-0.035-0.069-0.007-0.146,0.038-0.253
		c0.038-0.087,0.076-0.176,0.038-0.264c2.143,0.227,3.821,2.177,3.831,4.558c0.003,0.329-0.027,0.649-0.088,0.958
		c-0.009-0.01-0.02-0.018-0.033-0.021c-0.124-0.021-0.342-0.087-0.43-0.297c-0.101-0.23-0.378-0.771-0.808-0.768l-0.066,0.001
		c-0.115,0-0.218-0.008-0.313-0.016c-0.077-0.006-0.149-0.012-0.216-0.012c-0.129,0.001-0.219,0.024-0.302,0.079
		c-0.055,0.038-0.113,0.053-0.177,0.053c-0.179,0.002-0.356-0.135-0.427-0.269c-0.044-0.083-0.133-0.124-0.224-0.164
		c-0.092-0.04-0.179-0.077-0.208-0.166c-0.018-0.053-0.013-0.127-0.007-0.211c0.007-0.134,0.007-0.225-0.039-0.279
		c-0.023-0.025-0.057-0.038-0.101-0.038c-0.029,0-0.06,0.005-0.092,0.014c-0.088,0.024-0.176,0.063-0.264,0.1
		c-0.115,0.05-0.223,0.098-0.307,0.098c-0.045,0-0.08-0.015-0.105-0.045c-0.042-0.047-0.059-0.135-0.052-0.271
		C16.008,18.662,16.211,18.441,16.557,18.441z M14.072,16.228c0.124,0.036,0.203,0.135,0.237,0.299
		c0.051,0.249,0.018,0.476-0.013,0.696c-0.054,0.383-0.105,0.745,0.27,1.192c0.126,0.151,0.227,0.287,0.317,0.412
		c0.329,0.447,0.544,0.742,1.469,0.941c0.339,0.074,0.567,0.31,0.735,0.483c0.112,0.114,0.207,0.213,0.3,0.235
		c0.056,0.016,0.104,0.022,0.149,0.03c0.16,0.028,0.238,0.049,0.27,0.201c0.024,0.104-0.042,0.23-0.109,0.367
		c-0.066,0.132-0.142,0.281-0.121,0.426c0.128,0.898,0.27,1.099,0.364,1.17c0.231,0.173,0.375,0.541,0.186,0.882
		c-0.026,0.05-0.059,0.112-0.095,0.185c-0.094,0.186-0.199,0.536-0.301,0.786c-0.525,0.254-1.106,0.398-1.719,0.401
		c-2.347,0.011-4.259-2.04-4.27-4.581C11.734,18.554,12.683,16.992,14.072,16.228z"/>
</g>
</svg>
