<?xml version="1.0" encoding="utf-8"?>
<!-- Generator: Adobe Illustrator 15.1.0, SVG Export Plug-In . SVG Version: 6.00 Build 0)  -->
<!DOCTYPE svg PUBLIC "-//W3C//DTD SVG 1.1//EN" "http://www.w3.org/Graphics/SVG/1.1/DTD/svg11.dtd">
<svg version="1.1" id="Layer_1" xmlns="http://www.w3.org/2000/svg" xmlns:xlink="http://www.w3.org/1999/xlink" x="0px" y="0px"
	 width="32px" height="32px" viewBox="0 0 32 32" enable-background="new 0 0 32 32" xml:space="preserve">
<g>
	<path fill="none" d="M1.625,19.437v8.214c0,0.034,0.03,0.063,0.063,0.063h3.762c0.032,0,0.061-0.029,0.061-0.063v-8.214
		c0-0.032-0.029-0.063-0.061-0.063H4.214c0.032,1.127,0.175,2.242,0.425,3.321H2.484c-0.223-1.085-0.35-2.198-0.377-3.321H1.688
		C1.655,19.373,1.625,19.404,1.625,19.437z"/>
	<path fill="none" d="M27.361,22.694c0.25-1.079,0.393-2.194,0.424-3.321H26.55c-0.034,0-0.063,0.031-0.063,0.063v8.214
		c0,0.034,0.029,0.063,0.063,0.063h3.762c0.034,0,0.063-0.029,0.063-0.063v-8.214c0-0.032-0.029-0.063-0.063-0.063h-0.421
		c-0.027,1.123-0.154,2.236-0.375,3.321H27.361z"/>
	<path fill="#FFFFFF" d="M4.214,19.373h1.236c0.032,0,0.061,0.031,0.061,0.063v8.214c0,0.034-0.029,0.063-0.061,0.063H1.688
		c-0.034,0-0.063-0.029-0.063-0.063v-8.214c0-0.032,0.03-0.063,0.063-0.063h0.419c-0.004-0.152-0.006-0.306-0.006-0.46
		c0-0.392,0.012-0.778,0.036-1.165H1.688C0.756,17.748,0,18.506,0,19.437v8.214c0,0.931,0.756,1.688,1.688,1.688h3.762
		c0.93,0,1.688-0.758,1.688-1.688v-8.214c0-0.931-0.758-1.688-1.688-1.688H4.248c-0.026,0.385-0.04,0.771-0.04,1.165
		C4.208,19.067,4.21,19.221,4.214,19.373z"/>
	<path fill="#FFFFFF" d="M30.312,17.748h-0.448c0.021,0.387,0.033,0.773,0.033,1.165c0,0.154-0.002,0.308-0.006,0.46h0.421
		c0.034,0,0.063,0.031,0.063,0.063v8.214c0,0.034-0.029,0.063-0.063,0.063H26.55c-0.034,0-0.063-0.029-0.063-0.063v-8.214
		c0-0.032,0.029-0.063,0.063-0.063h1.235c0.005-0.152,0.007-0.306,0.007-0.46c0-0.394-0.015-0.78-0.04-1.165H26.55
		c-0.931,0-1.688,0.758-1.688,1.688v8.214c0,0.931,0.758,1.688,1.688,1.688h3.762c0.931,0,1.688-0.758,1.688-1.688v-8.214
		C32,18.506,31.242,17.748,30.312,17.748z"/>
	<path fill="#FFFFFF" d="M25.887,7.486C23.258,4.375,19.746,2.661,16,2.661S8.742,4.375,6.113,7.486
		c-2.354,2.784-3.742,6.391-3.977,10.262h2.111C4.744,10.49,9.826,4.767,16,4.767c6.175,0,11.256,5.724,11.752,12.981h2.111
		C29.629,13.877,28.238,10.271,25.887,7.486z"/>
	<path fill="#FFFFFF" d="M2.101,18.913c0,0.154,0.002,0.308,0.006,0.46h2.107c-0.004-0.152-0.006-0.306-0.006-0.46
		c0-0.394,0.014-0.78,0.04-1.165H2.137C2.113,18.135,2.101,18.521,2.101,18.913z"/>
	<path fill="#FFFFFF" d="M27.785,19.373h2.105c0.004-0.152,0.006-0.306,0.006-0.46c0-0.392-0.012-0.778-0.033-1.165h-2.111
		c0.025,0.385,0.04,0.771,0.04,1.165C27.792,19.067,27.79,19.221,27.785,19.373z"/>
</g>
</svg>
