<?xml version="1.0" encoding="utf-8"?>
<!-- Generator: Adobe Illustrator 15.1.0, SVG Export Plug-In . SVG Version: 6.00 Build 0)  -->
<!DOCTYPE svg PUBLIC "-//W3C//DTD SVG 1.1//EN" "http://www.w3.org/Graphics/SVG/1.1/DTD/svg11.dtd">
<svg version="1.1" id="Layer_1" xmlns="http://www.w3.org/2000/svg" xmlns:xlink="http://www.w3.org/1999/xlink" x="0px" y="0px"
	 width="32px" height="32px" viewBox="0 0 32 32" enable-background="new 0 0 32 32" xml:space="preserve">
<g>
	<g>
		<path fill="#FFFFFF" d="M19.012,12.136l7.848,3.461c0.112,0.049,0.281-0.08,0.376-0.291c0.093-0.212,0.074-0.424-0.039-0.473
			l-7.847-3.459c-0.116-0.051-0.283,0.078-0.377,0.289C18.88,11.875,18.897,12.087,19.012,12.136z"/>
		<path fill="#FFFFFF" d="M18.182,14.022l7.846,3.46c0.115,0.049,0.283-0.08,0.376-0.291s0.075-0.422-0.038-0.474l-7.848-3.461
			c-0.113-0.048-0.282,0.082-0.376,0.292C18.049,13.76,18.067,13.97,18.182,14.022z"/>
		<path fill="#FFFFFF" d="M17.368,15.864l7.847,3.461c0.113,0.05,0.282-0.08,0.376-0.291c0.093-0.212,0.075-0.424-0.039-0.474
			l-7.846-3.459c-0.114-0.051-0.283,0.08-0.376,0.292C17.237,15.603,17.253,15.813,17.368,15.864z"/>
		<path fill="#FFFFFF" d="M16.467,17.91l7.846,3.46c0.114,0.05,0.282-0.081,0.375-0.291c0.093-0.211,0.077-0.422-0.038-0.474
			l-7.846-3.461c-0.115-0.05-0.282,0.081-0.375,0.291C16.335,17.647,16.353,17.861,16.467,17.91z"/>
		<path fill="#FFFFFF" d="M15.59,19.899l7.846,3.459c0.112,0.052,0.282-0.078,0.375-0.289c0.094-0.211,0.076-0.422-0.038-0.472
			l-7.847-3.461c-0.114-0.052-0.282,0.077-0.375,0.289C15.457,19.636,15.474,19.85,15.59,19.899z"/>
	</g>
	<path fill="#FFFFFF" d="M30.965,10.198l-10.771-4.75c-0.91-0.402-2.01,0.084-2.449,1.082l-2.362,5.357v0.043l-1.875,4.252v4.693
		v1.241v0.255c0,0.036-0.007,0.063-0.014,0.084h-2.257c0.002,0.007,0.006,0.012,0.007,0.019l-0.026-0.019h-9.31
		c-0.007-0.021-0.013-0.048-0.013-0.084V6.475c0-0.033,0.006-0.062,0.013-0.083h11.567c0.008,0.02,0.014,0.049,0.014,0.083v9.707
		l1.894-4.295V6.475c0-1.09-0.81-1.977-1.806-1.977H1.806C0.81,4.498,0,5.385,0,6.475v15.896c0,1.092,0.81,1.979,1.806,1.979h11.771
		c0.082,0,0.162-0.007,0.241-0.019L13.79,24.31l0.04,0.019c-0.005,0-0.008,0.003-0.013,0.003l9.137,4.03
		c0.911,0.4,2.01-0.084,2.449-1.082l6.415-14.544C32.258,11.738,31.874,10.6,30.965,10.198z M30.086,11.971l-6.413,14.543
		c-0.017,0.032-0.033,0.055-0.047,0.071l-8.299-3.659c0,0,0.001-0.003,0.003-0.008c0.045-0.173,0.07-0.356,0.07-0.548V16.58v-0.041
		l4.077-9.245c0.014-0.031,0.03-0.055,0.045-0.073l10.585,4.669C30.104,11.912,30.099,11.939,30.086,11.971z"/>
	<path fill="#FFFFFF" d="M3.425,11.096h8.573c0.125,0,0.227-0.187,0.227-0.417c0-0.231-0.102-0.417-0.227-0.417H3.425
		c-0.127,0-0.228,0.185-0.228,0.417C3.197,10.909,3.298,11.096,3.425,11.096z"/>
	<path fill="#FFFFFF" d="M3.425,13.154h8.573c0.125,0,0.227-0.185,0.227-0.417c0-0.231-0.102-0.417-0.227-0.417H3.425
		c-0.127,0-0.228,0.185-0.228,0.417C3.197,12.969,3.298,13.154,3.425,13.154z"/>
	<path fill="#FFFFFF" d="M3.425,15.169h8.573c0.125,0,0.227-0.187,0.227-0.418c0-0.23-0.102-0.417-0.227-0.417H3.425
		c-0.127,0-0.228,0.187-0.228,0.417C3.197,14.982,3.298,15.169,3.425,15.169z"/>
	<path fill="#FFFFFF" d="M3.425,17.404h8.573c0.125,0,0.227-0.188,0.227-0.417c0-0.231-0.102-0.419-0.227-0.419H3.425
		c-0.127,0-0.228,0.188-0.228,0.419C3.197,17.217,3.298,17.404,3.425,17.404z"/>
	<path fill="#FFFFFF" d="M11.998,18.744H3.425c-0.127,0-0.228,0.188-0.228,0.417c0,0.231,0.101,0.417,0.228,0.417h8.565l0.227-0.517
		C12.194,18.88,12.104,18.744,11.998,18.744z"/>
	<path fill="#FFFFFF" d="M19.012,12.136l7.848,3.461c0.112,0.049,0.281-0.08,0.376-0.291c0.093-0.212,0.074-0.424-0.039-0.473
		l-7.847-3.459c-0.116-0.051-0.283,0.078-0.377,0.289C18.88,11.875,18.897,12.087,19.012,12.136z"/>
	<path fill="#FFFFFF" d="M18.182,14.022l7.846,3.46c0.115,0.049,0.283-0.08,0.376-0.291s0.075-0.422-0.038-0.474l-7.848-3.461
		c-0.113-0.048-0.282,0.082-0.376,0.292C18.049,13.76,18.067,13.97,18.182,14.022z"/>
	<path fill="#FFFFFF" d="M17.368,15.864l7.847,3.461c0.113,0.05,0.282-0.08,0.376-0.291c0.093-0.212,0.075-0.424-0.039-0.474
		l-7.846-3.459c-0.114-0.051-0.283,0.08-0.376,0.292C17.237,15.603,17.253,15.813,17.368,15.864z"/>
	<path fill="#FFFFFF" d="M16.467,17.91l7.846,3.46c0.114,0.05,0.282-0.081,0.375-0.291c0.093-0.211,0.077-0.422-0.038-0.474
		l-7.846-3.461c-0.115-0.05-0.282,0.081-0.375,0.291C16.335,17.647,16.353,17.861,16.467,17.91z"/>
	<path fill="#FFFFFF" d="M15.59,19.899l7.846,3.459c0.112,0.052,0.282-0.078,0.375-0.289c0.094-0.211,0.076-0.422-0.038-0.472
		l-7.847-3.461c-0.114-0.052-0.282,0.077-0.375,0.289C15.457,19.636,15.474,19.85,15.59,19.899z"/>
	<path fill="#FFFFFF" d="M3.425,11.096h8.573c0.125,0,0.227-0.187,0.227-0.417c0-0.231-0.102-0.417-0.227-0.417H3.425
		c-0.127,0-0.228,0.185-0.228,0.417C3.197,10.909,3.298,11.096,3.425,11.096z"/>
	<path fill="#FFFFFF" d="M3.425,13.154h8.573c0.125,0,0.227-0.185,0.227-0.417c0-0.231-0.102-0.417-0.227-0.417H3.425
		c-0.127,0-0.228,0.185-0.228,0.417C3.197,12.969,3.298,13.154,3.425,13.154z"/>
	<path fill="#FFFFFF" d="M3.425,15.169h8.573c0.125,0,0.227-0.187,0.227-0.418c0-0.23-0.102-0.417-0.227-0.417H3.425
		c-0.127,0-0.228,0.187-0.228,0.417C3.197,14.982,3.298,15.169,3.425,15.169z"/>
	<path fill="#FFFFFF" d="M3.425,17.404h8.573c0.125,0,0.227-0.188,0.227-0.417c0-0.231-0.102-0.419-0.227-0.419H3.425
		c-0.127,0-0.228,0.188-0.228,0.419C3.197,17.217,3.298,17.404,3.425,17.404z"/>
	<path fill="#FFFFFF" d="M11.998,18.744H3.425c-0.127,0-0.228,0.188-0.228,0.417c0,0.231,0.101,0.417,0.228,0.417h8.565l0.227-0.517
		C12.194,18.88,12.104,18.744,11.998,18.744z"/>
</g>
</svg>
