<?xml version="1.0" encoding="utf-8"?>
<!-- Generator: Adobe Illustrator 15.1.0, SVG Export Plug-In . SVG Version: 6.00 Build 0)  -->
<!DOCTYPE svg PUBLIC "-//W3C//DTD SVG 1.1//EN" "http://www.w3.org/Graphics/SVG/1.1/DTD/svg11.dtd">
<svg version="1.1" id="Layer_1" xmlns="http://www.w3.org/2000/svg" xmlns:xlink="http://www.w3.org/1999/xlink" x="0px" y="0px"
	 width="32px" height="32px" viewBox="0 0 32 32" enable-background="new 0 0 32 32" xml:space="preserve">
<path fill="#FFFFFF" d="M31.998,6.73l-0.297-2.763c-0.022-0.215-0.216-0.374-0.432-0.353L0.354,6.771
	c-0.146,0.015-0.265,0.108-0.32,0.234L0,6.995v3.72h0.013L0,13.05c0,0.036,0.005,0.07,0.015,0.104
	c-0.004,0.063-0.008,0.126-0.008,0.192L0.003,27.134c0.003,1.24,1.042,2.251,2.315,2.251l27.227,0.002v-0.002
	c1.283,0,2.316-1.011,2.316-2.251l0.004-13.788c0-0.07-0.006-0.139-0.012-0.207c0.006-0.029,0.012-0.059,0.012-0.089l0.013-2.777
	c0-0.22-0.177-0.395-0.395-0.395H5.044l26.601-2.716C31.861,7.141,32.02,6.946,31.998,6.73z M28.817,10.275h2.686l-1.573,2.771
	h-2.686L28.817,10.275z M23.449,10.275h2.685l-1.575,2.771h-2.685L23.449,10.275z M18.078,10.275h2.686l-1.574,2.771h-2.685
	L18.078,10.275z M12.709,10.275h2.685l-1.573,2.771h-2.686L12.709,10.275z M7.339,10.275h2.685L8.45,13.046H5.765L7.339,10.275z
	 M3.081,13.046H0.396l1.573-2.771h2.686L3.081,13.046z M2.243,9.763L0.396,7.166l2.671-0.273l1.847,2.598L2.243,9.763z M7.585,9.218
	L5.737,6.621l2.67-0.273l1.849,2.598L7.585,9.218z M12.927,8.673l-1.848-2.598l2.671-0.272L15.598,8.4L12.927,8.673z M18.269,8.127
	L16.422,5.53l2.671-0.272l1.847,2.598L18.269,8.127z M23.61,7.582l-1.847-2.598l2.67-0.272l1.85,2.598L23.61,7.582z M28.953,7.037
	l-1.848-2.598l2.671-0.273l1.847,2.598L28.953,7.037z"/>
</svg>
