<?xml version="1.0" standalone="no"?>
<!DOCTYPE svg PUBLIC "-//W3C//DTD SVG 1.1//EN" "http://www.w3.org/Graphics/SVG/1.1/DTD/svg11.dtd" >
<svg xmlns="http://www.w3.org/2000/svg">
<metadata>
This is a custom SVG webfont generated by Font Squirrel.
Copyright   : Copyright 2004 Monotype Imaging Inc All Rights Reserved
Foundry URL : httpwwwmonotypeimagingcom
</metadata>
<defs>
<font id="NeoSansStdMedium" horiz-adv-x="1290" >
<font-face units-per-em="2048" ascent="1567" descent="-481" />
<missing-glyph horiz-adv-x="512" />
<glyph unicode=" "  horiz-adv-x="512" />
<glyph unicode="&#x09;" horiz-adv-x="512" />
<glyph unicode="&#xa0;" horiz-adv-x="512" />
<glyph unicode="!" horiz-adv-x="524" d="M123 1520q0 14 13.5 26.5t29.5 12.5h194q16 0 28.5 -11.5t12.5 -27.5l-30 -1041q0 -16 -12.5 -28.5t-28.5 -12.5h-133q-16 0 -29.5 12.5t-13.5 28.5zM131 35v231q0 39 39 39h184q39 0 39 -39v-231q0 -16 -11 -28.5t-28 -12.5h-184q-16 0 -27.5 12.5t-11.5 28.5z" />
<glyph unicode="&#x22;" horiz-adv-x="860" d="M59 1077q0 12 2 19l105 424q8 39 41 39h192q25 0 25 -23q0 -4 -4 -16l-139 -424q-10 -39 -39 -39h-164q-19 0 -19 20zM469 1077q0 12 2 19l104 424q8 39 41 39h193q25 0 25 -23q0 -4 -5 -16l-139 -424q-10 -39 -39 -39h-164q-18 0 -18 20z" />
<glyph unicode="#" horiz-adv-x="1400" d="M74 436v4l10 95q4 41 41 40h176l33 363l-166 2q-16 0 -28.5 11.5t-12.5 25.5v4l10 92q4 41 41 41h170l33 369q2 16 13.5 27.5t25.5 11.5h164q31 0 30 -35v-4l-32 -369h266l33 369q4 39 39 39h161q31 0 31 -35v-4l-33 -369h178q16 0 28.5 -11t12.5 -26v-4l-10 -92 q-4 -41 -41 -41q-2 0 -73.5 -1t-108.5 -1l-33 -363h174q16 0 28.5 -11t12.5 -25v-4l-10 -95q-4 -41 -41 -41h-180l-31 -360q-4 -39 -37 -39h-162q-33 0 -32 35v4l30 360h-266l-31 -360q-4 -39 -36 -39h-164q-14 0 -23.5 10t-9.5 25v4l31 360h-170q-16 0 -28.5 11.5 t-12.5 25.5zM535 575h266l33 363h-267z" />
<glyph unicode="$" d="M154 1149q0 322 348 377v172q0 16 12 28.5t29 12.5h186q16 0 28.5 -12.5t12.5 -28.5v-164q190 -10 289 -33q37 -8 37 -39v-151q0 -37 -35 -37h-4q-225 20 -404 20q-215 0 -215 -145q0 -51 35 -89t133 -93l246 -138q160 -88 222.5 -187t62.5 -230q0 -147 -88 -262 t-279 -152v-186q0 -16 -12.5 -28.5t-28.5 -12.5h-186q-16 0 -28.5 12t-12.5 29v174q-127 4 -266 34q-39 8 -39 41v148q0 16 11 27.5t28 11.5h4q164 -20 362 -21q131 0 184.5 45t53.5 140q0 59 -36 99t-138 101l-271 162q-135 80 -188 170t-53 205z" />
<glyph unicode="%" horiz-adv-x="1660" d="M82 1022v168q0 342 293 342q291 0 291 -342v-168q0 -344 -291 -344q-141 0 -217 86t-76 258zM256 1022q0 -193 119 -193q57 0 87 44.5t30 148.5v168q0 104 -29 147t-88.5 43t-89 -43t-29.5 -147v-168zM279 12q0 14 8 25l854 1444q25 41 49 41h172q18 0 18 -17 q0 -10 -8 -24l-854 -1444q-25 -43 -47 -43h-172q-20 0 -20 18zM997 332v168q0 172 76 258t217 86q291 0 291 -344v-168q0 -344 -291 -344q-141 0 -217 86t-76 258zM1171 332q0 -104 30 -147.5t89.5 -43.5t88 43t28.5 148v168q0 104 -28.5 147t-88 43t-89.5 -43t-30 -147 v-168z" />
<glyph unicode="&#x26;" horiz-adv-x="1470" d="M113 377v20q0 123 68.5 212t211.5 177l-14 17q-121 137 -158 219t-37 160v18q0 156 120 247t347 91q201 0 321 -92t120 -246v-18q0 -70 -25 -131.5t-72 -111.5t-94 -87t-113 -78l-49 -31l308 -327q53 121 53 293v24q0 41 35 41h149q37 0 37 -41v-24q0 -268 -123 -453 l201 -213q8 -8 8 -20q0 -23 -23 -23h-229q-18 0 -35 16l-76 80q-162 -113 -389 -112q-240 0 -391 97t-151 296zM393 377q0 -94 73 -143.5t189 -49.5q147 0 248 62l-358 381q-88 -53 -120 -103.5t-32 -126.5v-20zM426 1182q0 -39 6 -65.5t39 -77t98 -115.5l19 -19l61 37 q117 70 158 119t41 121v18q0 145 -197 146q-104 0 -164.5 -38t-60.5 -108v-18z" />
<glyph unicode="'" horiz-adv-x="450" d="M59 1077q0 12 2 19l105 424q8 39 41 39h192q25 0 25 -23q0 -4 -4 -16l-139 -424q-10 -39 -39 -39h-164q-19 0 -19 20z" />
<glyph unicode="(" horiz-adv-x="681" d="M113 541v39q0 289 66.5 506t201.5 407q20 29 70 29h145q25 0 25 -21q0 -16 -11 -33q-221 -410 -221 -888v-39q0 -477 221 -887q10 -16 11 -33q0 -20 -25 -20h-145q-49 0 -70 28q-135 190 -201.5 406.5t-66.5 505.5z" />
<glyph unicode=")" horiz-adv-x="681" d="M61 -379q0 16 11 33q221 410 221 887v39q0 479 -221 888q-10 16 -11 33q0 20 25 21h145q49 0 70 -29q135 -190 201.5 -407.5t66.5 -505.5v-39q0 -289 -66.5 -505t-201.5 -407q-20 -29 -70 -28h-145q-25 0 -25 20z" />
<glyph unicode="*" horiz-adv-x="968" d="M80 1194q0 6 2 10l33 101q6 20 26 20q8 0 21 -4l244 -80l-5 256q0 39 31 39h107q31 0 30 -41l-2 -254l242 80q12 4 20 4q20 0 27 -20l33 -101q2 -4 2 -10q0 -23 -31 -33l-244 -74l152 -206q10 -14 10 -29q0 -12 -12 -23l-84 -61q-10 -6 -18 -6q-16 0 -31 20l-148 209 l-147 -209q-14 -20 -31 -20q-8 0 -18 6l-86 61q-12 10 -13 23q0 14 11 29l153 206l-241 74q-33 10 -33 33z" />
<glyph unicode="+" d="M170 729v143q0 33 41 33h330v332q0 41 32 41h144q33 0 33 -41v-332h331q41 0 41 -33v-143q0 -33 -41 -33h-331v-329q0 -41 -33 -41h-144q-33 0 -32 41v329h-330q-41 0 -41 33z" />
<glyph unicode="," horiz-adv-x="530" d="M23 -170q0 8 2 12l125 430q12 39 40 39h197q29 0 29 -24q0 -2 -4 -15l-179 -430q-16 -41 -38 -41h-142q-30 0 -30 29z" />
<glyph unicode="-" horiz-adv-x="657" d="M88 565v129q0 16 12.5 27.5t28.5 11.5h401q39 0 39 -39v-129q0 -37 -39 -37h-401q-41 0 -41 37z" />
<glyph unicode="." horiz-adv-x="530" d="M133 41v231q0 16 12.5 27.5t28.5 11.5h182q16 0 28.5 -11t12.5 -28v-231q0 -16 -12 -28.5t-29 -12.5h-182q-16 0 -28.5 12.5t-12.5 28.5z" />
<glyph unicode="/" horiz-adv-x="747" d="M33 43l446 1438q12 41 39 41h166q16 0 27 -11q6 -6 6 -16q0 -6 -2 -14l-445 -1438q-12 -43 -39 -43h-165q-20 0 -29 13q-5 9 -6 19q1 6 2 11z" />
<glyph unicode="0" d="M111 684v152q0 369 137 535.5t397 166.5t397.5 -167t137.5 -535v-152q0 -369 -137.5 -534.5t-397.5 -165.5t-397 165.5t-137 534.5zM395 684q0 -260 66.5 -364.5t183.5 -104.5t183.5 104.5t66.5 364.5v152q0 260 -66.5 365.5t-183.5 105.5t-183.5 -105.5t-66.5 -365.5 v-152z" />
<glyph unicode="1" d="M223 41v156q0 37 41 36h275v1008l-269 -82q-10 -4 -24 -4q-23 0 -23 25v192q0 16 15 23l362 118q25 8 47 9h135q39 0 39 -39v-1250h275q41 0 41 -36v-156q0 -16 -12.5 -28.5t-28.5 -12.5h-832q-16 0 -28.5 12.5t-12.5 28.5z" />
<glyph unicode="2" d="M166 41v201q0 162 88 304t223 232l203 135q121 80 154.5 124t33.5 126t-55 117t-184 35q-145 0 -410 -31h-4q-37 0 -37 41v123q0 27 39 39q190 51 412 51q266 0 385 -91t119 -284q0 -123 -62.5 -216t-193.5 -181l-185 -123q-154 -104 -222.5 -192.5t-68.5 -208.5v-9h674 q41 0 41 -36v-156q0 -16 -12 -28.5t-29 -12.5h-868q-16 0 -28.5 12.5t-12.5 28.5z" />
<glyph unicode="3" d="M172 74v127q0 37 37 37h4q283 -29 391 -29q121 0 175.5 53t54.5 164v43q0 207 -189 207h-362q-39 0 -39 39v129q0 39 39 39h362q109 0 149 53t40 147v33q0 90 -50.5 143.5t-179.5 53.5q-111 0 -391 -29h-4q-37 0 -37 37v127q0 31 39 39q209 51 393 51q238 0 376 -101.5 t138 -320.5v-33q0 -209 -176 -303q84 -45 130 -128t46 -183v-43q0 -219 -142 -330.5t-372 -111.5q-184 0 -393 51q-39 8 -39 39z" />
<glyph unicode="4" d="M80 408v165q0 37 22 66l631 846q27 37 60 37h186q16 0 28.5 -12.5t12.5 -28.5v-889h151q16 0 28.5 -12.5t12.5 -28.5v-143q0 -16 -12 -28.5t-29 -12.5h-151v-326q0 -41 -37 -41h-211q-37 0 -37 41v326h-614q-16 0 -28.5 12.5t-12.5 28.5zM352 602q0 -10 17 -10h368v520 q0 12 -6 12t-14 -12l-359 -498q-6 -6 -6 -12z" />
<glyph unicode="5" d="M172 80v121q0 37 37 37h4q227 -29 391 -29q137 0 189.5 69.5t52.5 206.5v11q0 127 -83 178t-280 51h-276q-8 0 -15.5 9t-7.5 18v4l66 729q4 37 41 37h743q16 0 28.5 -11.5t12.5 -27.5v-156q0 -16 -12 -27.5t-29 -11.5h-555l-30 -340h34q104 0 188.5 -9t173.5 -38 t148.5 -76t98 -132t38.5 -197v-11q0 -238 -132 -369.5t-394 -131.5q-199 0 -393 51q-39 12 -39 45z" />
<glyph unicode="6" d="M123 616v236q0 362 140 524t427 162q195 0 379 -39q47 -10 47 -43v-127q0 -43 -39 -43h-8q-168 27 -379 27q-156 0 -220 -82t-69 -291q121 23 285 23q221 0 361.5 -107.5t140.5 -343.5v-20q0 -231 -139.5 -369.5t-389.5 -138.5q-242 0 -389 156.5t-147 475.5zM401 616 q0 -238 65.5 -324.5t192.5 -86.5q250 0 250 287v20q0 244 -280 244q-115 0 -228 -23v-117z" />
<glyph unicode="7" d="M158 1325v158q0 16 12 27.5t29 11.5h854q33 0 57.5 -23.5t24.5 -58.5v-111q0 -16 -37 -94l-553 -1196q-18 -39 -56 -39h-213q-29 0 -28 31q0 6 4 18l588 1225v4q0 10 -11 10h-630q-41 0 -41 37z" />
<glyph unicode="8" d="M111 440v19q0 203 186 334q-178 117 -178 319v8q0 217 143.5 317.5t372.5 100.5h20q147 0 260 -39t187 -135t74 -244v-8q0 -201 -181 -319q186 -131 187 -334v-19q0 -229 -149.5 -342.5t-377.5 -113.5h-20q-227 0 -375.5 113.5t-148.5 342.5zM383 1104q0 -94 54.5 -152.5 t166.5 -58.5h84q113 0 168 58.5t55 152.5v8q0 217 -256 217h-20q-252 0 -252 -217v-8zM387 440q0 -109 63.5 -176t184.5 -67h20q121 0 185.5 68.5t64.5 174.5v19q0 88 -53 156.5t-164 68.5h-84q-111 0 -164 -68.5t-53 -156.5v-19z" />
<glyph unicode="9" d="M100 1010v20q0 231 139.5 369.5t389.5 138.5q242 0 389 -156.5t147 -476.5v-235q0 -362 -140 -524t-427 -162q-195 0 -379 39q-47 10 -47 43v127q0 43 39 43h8q168 -27 379 -27q156 0 220.5 82t68.5 291q-121 -23 -285 -23q-221 0 -361.5 107.5t-140.5 343.5zM379 1010 q0 -244 280 -244q115 0 228 22v117q0 238 -65.5 325t-192.5 87q-250 0 -250 -287v-20z" />
<glyph unicode=":" horiz-adv-x="530" d="M133 41v231q0 16 12.5 27.5t28.5 11.5h182q16 0 28.5 -11t12.5 -28v-231q0 -16 -12 -28.5t-29 -12.5h-182q-16 0 -28.5 12.5t-12.5 28.5zM133 848v231q0 16 12.5 28.5t28.5 12.5h182q16 0 28.5 -12t12.5 -29v-231q0 -16 -12 -27.5t-29 -11.5h-182q-16 0 -28.5 11.5 t-12.5 27.5z" />
<glyph unicode=";" horiz-adv-x="530" d="M8 -170q0 8 2 12l125 430q12 39 41 39h197q29 0 28 -24q0 -2 -4 -15l-178 -430q-16 -41 -39 -41h-141q-31 0 -31 29zM133 848v231q0 16 12.5 28.5t28.5 12.5h182q16 0 28.5 -12t12.5 -29v-231q0 -16 -12 -27.5t-29 -11.5h-182q-16 0 -28.5 11.5t-12.5 27.5z" />
<glyph unicode="&#x3c;" d="M238 801q0 39 47 80l473 413q27 23 45 23h225q25 0 25 -29q0 -14 -13 -24l-532 -463l532 -463q12 -10 13 -25q0 -29 -25 -28h-225q-18 0 -45 22l-473 414q-47 41 -47 80z" />
<glyph unicode="=" d="M190 481v144q0 33 41 32h830q41 0 41 -32v-144q0 -33 -41 -32h-830q-41 -1 -41 32zM190 977v143q0 33 41 33h830q41 0 41 -33v-143q0 -33 -41 -33h-830q-41 0 -41 33z" />
<glyph unicode="&#x3e;" d="M238 313q0 14 12 25l532 463l-532 463q-12 10 -12 24q0 29 24 29h225q18 0 45 -23l474 -413q47 -41 47 -80t-47 -80l-474 -414q-27 -23 -45 -22h-225q-24 -1 -24 28z" />
<glyph unicode="?" horiz-adv-x="894" d="M61 1317v127q0 29 6.5 40t30.5 17q141 37 314 37q211 0 316.5 -71.5t105.5 -247.5v-33q0 -45 -7.5 -80t-41 -97.5t-97.5 -138.5l-125 -147q-6 -6 -22.5 -25.5t-20.5 -25.5t-16 -21.5t-15.5 -24t-9.5 -21.5t-8 -24.5t-2 -25.5v-78q0 -16 -12.5 -27.5t-28.5 -11.5h-170 q-39 0 -39 39v78q0 96 24.5 156.5t96.5 144.5l131 152q59 70 59 178v33q0 76 -118 75q-109 0 -308 -22h-8q-35 0 -35 45zM211 39v231q0 16 12.5 28.5t28.5 12.5h184q16 0 28.5 -12t12.5 -29v-231q0 -16 -12 -27.5t-29 -11.5h-184q-16 0 -28.5 11.5t-12.5 27.5z" />
<glyph unicode="@" horiz-adv-x="1581" d="M74 315q0 43 2 66l30 334q27 293 225.5 465t530.5 172q309 0 478 -178.5t169 -432.5q0 -352 -195.5 -497.5t-559.5 -145.5q-160 0 -254 76t-94 217q0 6 1 18.5t1 18.5l18 240q14 168 118.5 253t278.5 85q90 0 271 -31q47 -6 47 -53v-9l-60 -618q150 23 210.5 137.5 t60.5 308.5q0 201 -125 336t-367 135q-266 0 -419.5 -132t-176.5 -375l-31 -324q-4 -49 -4 -68q0 -188 130 -300.5t382 -112.5q160 0 297 14h13q14 0 14 -18v-76q0 -25 -27 -27q-154 -20 -297 -20q-301 0 -484 144t-183 398zM618 395q0 -63 35 -88.5t115 -25.5h41q39 0 57 2 l47 530q-61 10 -112 10q-78 0 -113 -36.5t-45 -127.5l-22 -229q-3 -12 -3 -35z" />
<glyph unicode="A" horiz-adv-x="1323" d="M39 35l2 4v6l336 1284q53 209 284.5 209t284.5 -209l336 -1284v-6l2 -4q0 -35 -37 -35h-217q-31 0 -39 35l-94 389h-471l-94 -389q-8 -35 -39 -35h-217q-37 0 -37 35zM481 657h361l-148 609q-8 33 -32.5 32.5t-32.5 -32.5z" />
<glyph unicode="B" horiz-adv-x="1331" d="M154 117v1290q0 53 20.5 77.5t71.5 33.5q133 20 342 20q631 0 631 -416v-41q0 -104 -48.5 -187t-140.5 -122q199 -84 199 -311v-35q0 -233 -161 -337.5t-462 -104.5q-238 0 -354 22q-53 10 -75.5 33t-22.5 78zM438 223q25 0 86.5 -2t81.5 -2q190 0 267 50t77 161v27 q0 96 -59.5 156.5t-192.5 60.5h-260v-451zM438 883h260q244 0 244 194v29q0 109 -79 153t-275 44q-63 0 -150 -5v-415z" />
<glyph unicode="C" horiz-adv-x="1153" d="M113 610v301q0 147 36.5 262t95 181.5t138.5 109.5t154.5 58.5t154.5 15.5q201 0 324 -33q45 -14 45 -47v-137q0 -43 -41 -43h-4q-190 16 -320 16q-297 0 -297 -383v-301q0 -383 297 -383q129 0 320 17h4q41 0 41 -43v-138q0 -33 -45 -47q-123 -33 -324 -32 q-80 0 -154.5 16t-154.5 59t-138.5 111t-95 181.5t-36.5 258.5z" />
<glyph unicode="D" horiz-adv-x="1366" d="M154 72v1378q0 53 53 63q147 25 403 25q309 0 476 -162t167 -465v-301q0 -303 -166.5 -464.5t-476.5 -161.5q-256 0 -403 24q-53 11 -53 64zM438 229q129 -6 172 -6q170 0 265.5 86t95.5 301v301q0 215 -95.5 301t-265.5 86q-43 0 -172 -6v-1063z" />
<glyph unicode="E" horiz-adv-x="1179" d="M154 403v715q0 127 34.5 212t103 129t147.5 61.5t188 17.5q205 0 389 -29q23 -4 32 -13t9 -30v-131q0 -16 -12.5 -28.5t-28.5 -12.5h-418q-90 0 -126 -37.5t-36 -138.5v-221h555q16 0 28.5 -12.5t12.5 -28.5v-147q0 -16 -12 -28.5t-29 -12.5h-555v-265q0 -100 36 -138 t126 -38h418q16 0 28.5 -12t12.5 -29v-131q0 -20 -9.5 -29.5t-31.5 -13.5q-184 -29 -389 -28q-109 0 -188 17t-147.5 61t-103 129t-34.5 212z" />
<glyph unicode="F" horiz-adv-x="1179" d="M154 41v1077q0 127 34.5 212t103 129t147.5 61.5t188 17.5q205 0 389 -29q23 -4 32 -13t9 -30v-131q0 -16 -12.5 -28.5t-28.5 -12.5h-418q-90 0 -126 -37.5t-36 -138.5v-221h555q16 0 28.5 -12.5t12.5 -28.5v-147q0 -16 -12 -28.5t-29 -12.5h-555v-627q0 -16 -12 -28.5 t-29 -12.5h-200q-16 0 -28.5 12.5t-12.5 28.5z" />
<glyph unicode="G" horiz-adv-x="1300" d="M113 612v295q0 174 51 302t136 197t177 100.5t191 31.5q238 0 440 -37q39 -8 39 -43v-137q0 -43 -41 -43h-6q-188 16 -432 16q-117 0 -193 -92t-76 -295v-295q0 -201 78 -293t185 -92q109 0 202 6v523q0 16 11.5 28.5t27.5 12.5h203q16 0 28.5 -12.5t12.5 -28.5v-688 q0 -41 -39 -50q-174 -35 -446 -34q-72 0 -142.5 18t-145.5 64.5t-132.5 115t-93 180t-35.5 250.5z" />
<glyph unicode="H" horiz-adv-x="1458" d="M154 41v1442q0 16 12 27.5t29 11.5h202q16 0 28.5 -11.5t12.5 -27.5v-565h582v565q0 16 12 27.5t29 11.5h203q16 0 28.5 -11.5t12.5 -27.5v-1442q0 -16 -12.5 -28.5t-28.5 -12.5h-203q-16 0 -28.5 12.5t-12.5 28.5v627h-582v-627q0 -16 -12 -28.5t-29 -12.5h-202 q-16 0 -28.5 12.5t-12.5 28.5z" />
<glyph unicode="I" horiz-adv-x="591" d="M154 41v1442q0 16 12 27.5t29 11.5h202q16 0 28.5 -11.5t12.5 -27.5v-1442q0 -16 -12 -28.5t-29 -12.5h-202q-16 0 -28.5 12.5t-12.5 28.5z" />
<glyph unicode="J" horiz-adv-x="591" d="M-74 -152q0 37 41 37h135q29 0 40.5 14.5t11.5 57.5v1526q0 16 12 27.5t29 11.5h202q16 0 28.5 -11.5t12.5 -27.5v-1526q0 -160 -78.5 -229.5t-248.5 -69.5q-106 0 -164 16q-20 6 -21 29v145z" />
<glyph unicode="K" horiz-adv-x="1316" d="M154 41v1440q0 16 12 27.5t29 11.5h202q16 0 28.5 -11.5t12.5 -27.5v-652l502 674q12 16 47 17h234q39 0 39 -25q0 -14 -15 -33l-524 -678l528 -741q10 -16 11 -25q0 -18 -31 -18h-275q-33 0 -47 23l-469 698v-680q0 -16 -12 -28.5t-29 -12.5h-202q-16 0 -28.5 12.5 t-12.5 28.5z" />
<glyph unicode="L" horiz-adv-x="1056" d="M154 403v1078q0 16 12 28.5t29 12.5h202q16 0 28.5 -12.5t12.5 -28.5v-1078q0 -100 35 -138t125 -38h377q16 0 28.5 -12t12.5 -29v-131q0 -20 -8.5 -29.5t-32.5 -13.5q-123 -29 -348 -28q-109 0 -188 17t-147.5 61t-103 129t-34.5 212z" />
<glyph unicode="M" horiz-adv-x="1622" d="M154 31v1409q0 35 23.5 58.5t58.5 23.5h167q51 0 76 -49l309 -627q16 -29 22.5 -29t23.5 29l309 627q25 49 76 49h167q35 0 58.5 -23.5t23.5 -58.5v-1409q0 -31 -34 -31h-207q-14 0 -23.5 12.5t-9.5 28.5v952q0 20 -6 21q-2 0 -10 -13l-197 -391q-18 -35 -66 -35h-206 q-47 0 -66 35l-199 391q-8 12 -10 13q-6 0 -6 -21v-952q0 -16 -9 -28.5t-24 -12.5h-207q-34 0 -34 31z" />
<glyph unicode="N" horiz-adv-x="1458" d="M154 41v1399q0 35 23.5 58.5t58.5 23.5h221q33 0 52 -13.5t38 -52.5l477 -1053q6 -16 16.5 -16t10.5 19v1077q0 39 39 39h176q39 0 39 -39v-1401q0 -33 -24 -57.5t-58 -24.5h-207q-33 0 -49.5 2t-38 19.5t-37.5 52.5l-455 997q-8 16 -18 16t-10 -16v-1030 q0 -16 -11.5 -28.5t-27.5 -12.5h-174q-16 0 -28.5 12.5t-12.5 28.5z" />
<glyph unicode="O" horiz-adv-x="1392" d="M113 623v276q0 324 157.5 481.5t426 157.5t426 -157.5t157.5 -481.5v-276q0 -324 -157.5 -481.5t-426 -157.5t-426 157.5t-157.5 481.5zM399 623q0 -201 73 -296.5t224.5 -95.5t224 95.5t72.5 296.5v276q0 201 -72.5 296t-224 95t-224.5 -95t-73 -296v-276z" />
<glyph unicode="P" horiz-adv-x="1282" d="M154 41v1409q0 51 65 61q174 27 402 27q125 0 226 -23.5t185 -76t131 -147.5t47 -226v-18q0 -131 -47 -227.5t-131 -150t-185.5 -78t-225.5 -24.5q-25 0 -58 1t-71.5 4t-53.5 3v-534q0 -16 -11 -28.5t-28 -12.5h-204q-16 0 -28.5 12.5t-12.5 28.5zM438 807q98 -6 183 -6 q162 0 234.5 60.5t72.5 185.5v18q0 127 -75 182.5t-232 55.5q-109 0 -183 -9v-487z" />
<glyph unicode="Q" horiz-adv-x="1413" d="M123 623v276q0 324 157.5 481.5t426 157.5t426 -157.5t157.5 -481.5v-276q0 -279 -119.5 -435.5t-328.5 -193.5v-43q0 -66 61 -66h199q49 0 49 -32v-127q0 -31 -45 -43q-90 -23 -203 -23q-332 0 -332 287v47q-209 37 -328.5 193.5t-119.5 435.5zM410 623 q0 -201 72.5 -296.5t224 -95.5t224.5 95.5t73 296.5v276q0 201 -73 296t-224.5 95t-224 -95t-72.5 -296v-276z" />
<glyph unicode="R" horiz-adv-x="1337" d="M154 41v1409q0 51 65 61q174 27 402 27q125 0 226 -23.5t185 -76t131 -144.5t47 -219v-18q0 -309 -276 -418l321 -598q4 -6 5 -16q0 -25 -25 -25h-250q-20 0 -41 41l-295 547h-28q-25 0 -58 1t-71.5 4t-53.5 3v-555q0 -16 -11 -28.5t-28 -12.5h-204q-16 0 -28.5 12.5 t-12.5 28.5zM438 825q98 -6 183 -6q162 0 234.5 53.5t72.5 184.5v18q0 115 -76 167t-231 52q-109 0 -183 -8v-461z" />
<glyph unicode="S" horiz-adv-x="1167" d="M92 1149q0 389 512 389q236 0 393 -37q37 -8 37 -39v-151q0 -37 -35 -37h-4q-225 20 -403 20q-215 0 -215 -145q0 -51 34.5 -89t133.5 -93l246 -138q160 -88 222 -187t62 -230q0 -178 -128 -303t-410 -125q-201 0 -363 36q-39 8 -39 41v148q0 16 11.5 27.5t27.5 11.5h4 q164 -20 363 -21q131 0 184 45t53 140q0 59 -35.5 99t-138.5 101l-270 162q-135 80 -188.5 170t-53.5 205z" />
<glyph unicode="T" horiz-adv-x="1185" d="M51 1321v162q0 16 12.5 27.5t28.5 11.5h1002q16 0 28.5 -11.5t12.5 -27.5v-162q0 -37 -41 -37h-359v-1243q0 -16 -12 -28.5t-29 -12.5h-202q-16 0 -28.5 12.5t-12.5 28.5v1243h-359q-41 0 -41 37z" />
<glyph unicode="U" horiz-adv-x="1413" d="M143 563v920q0 16 12.5 27.5t28.5 11.5h203q16 0 28.5 -11.5t12.5 -27.5v-920q0 -184 59.5 -264t219 -80t219 80t59.5 264v920q0 16 12.5 27.5t28.5 11.5h203q16 0 28.5 -11.5t12.5 -27.5v-920q0 -580 -563.5 -580t-563.5 580z" />
<glyph unicode="V" horiz-adv-x="1343" d="M49 1487q0 35 37 35h217q31 0 39 -35l297 -1231q8 -33 32.5 -33t33.5 33l296 1231q8 35 39 35h217q37 0 37 -35q0 -2 -1 -5t-1 -5l-336 -1284q-53 -209 -284.5 -209t-284.5 209l-336 1284q0 2 -1 5t-1 5z" />
<glyph unicode="W" horiz-adv-x="1765" d="M51 1487v6q0 29 35 29h217q31 0 35 -37l147 -1223q4 -31 10.5 -31t12.5 31l176 719q23 92 129 92h141q106 0 129 -92l177 -719q6 -31 12 -31t10 31l148 1223q4 37 34 37h217q35 0 35 -29v-6l-192 -1337q-14 -94 -57.5 -130t-127.5 -36h-110q-70 0 -110 37.5t-60 125.5 l-162 676q-4 23 -12 23q-10 0 -15 -23l-161 -676q-20 -88 -60.5 -125.5t-109.5 -37.5h-111q-84 0 -127 35.5t-57 130.5z" />
<glyph unicode="X" horiz-adv-x="1331" d="M51 1495q0 27 33 27h242q27 0 53 -39l299 -477l276 477q23 39 54 39h223q33 0 33 -27q0 -4 -4 -12l-431 -721l451 -721q4 -6 4 -16q0 -25 -33 -25h-241q-27 0 -54 41l-301 483l-282 -483q-23 -41 -54 -41h-223q-33 0 -33 27q0 6 5 14l436 727l-449 715q-4 8 -4 12z" />
<glyph unicode="Y" horiz-adv-x="1259" d="M47 1491q0 31 33 31h227q27 0 39 -33l246 -610q16 -41 35 -41q20 0 37 41l245 610q12 33 39 33h226q35 0 34 -31q0 -4 -4 -16l-311 -711q-51 -119 -125 -150v-573q0 -16 -11.5 -28.5t-27.5 -12.5h-205q-16 0 -27.5 12.5t-11.5 28.5v573q-74 31 -125 150l-309 711 q-4 12 -4 16z" />
<glyph unicode="Z" horiz-adv-x="1204" d="M82 76v112q0 37 27 78l649 973q6 10 6 18q0 16 -21 17h-569q-39 0 -39 37v172q0 39 39 39h825q47 0 78 -19.5t31 -58.5v-119q0 -41 -29 -84l-639 -956q-8 -10 -8 -22.5t19 -12.5h630q41 0 41 -37v-172q0 -16 -12 -28.5t-29 -12.5h-895q-104 0 -104 76z" />
<glyph unicode="[" horiz-adv-x="729" d="M143 -358v1841q0 16 10.5 27.5t24.5 11.5h455q39 0 39 -33v-150q0 -35 -39 -34h-215v-1485h215q39 0 39 -35v-150q0 -33 -39 -32h-455q-14 0 -24.5 11.5t-10.5 27.5z" />
<glyph unicode="\" horiz-adv-x="788" d="M31 1491q0 12 10 21.5t25 9.5h204q29 0 41 -41l447 -1454q0 -2 1 -5.5t1 -5.5q0 -12 -10.5 -22t-24.5 -10h-207q-25 0 -37 43l-448 1454q0 2 -1 5t-1 5z" />
<glyph unicode="]" horiz-adv-x="729" d="M57 -215q0 35 39 35h215v1485h-215q-39 0 -39 32v150q0 35 39 35h455q14 0 24.5 -11.5t10.5 -27.5v-1841q0 -16 -10.5 -27.5t-24.5 -11.5h-455q-39 0 -39 32v150z" />
<glyph unicode="^" d="M168 1174q0 10 10 24l232 303q29 37 65 37h340q37 0 66 -37l231 -303q10 -14 10 -24q0 -18 -24 -19h-209q-31 0 -62 33l-182 209l-182 -209q-31 -33 -62 -33h-208q-25 1 -25 19z" />
<glyph unicode="_" horiz-adv-x="1071" d="M-63 -121q0 33 40 33h1117q41 0 41 -33v-80q0 -33 -41 -32h-1117q-41 0 -40 32v80z" />
<glyph unicode="`" horiz-adv-x="849" d="M66 1581q0 14 22 14h217q29 0 53 -30l193 -246q8 -8 8 -21q0 -14 -18 -14h-176q-23 0 -48 27l-243 254q-8 8 -8 16z" />
<glyph unicode="a" horiz-adv-x="1122" d="M90 326v8q0 178 119 266t381 88h129v90q0 96 -42 131t-138 35q-199 0 -334 -16h-10q-37 0 -37 35v131q0 35 39 43q164 33 342 32q451 0 450 -391v-737q0 -16 -12 -28.5t-29 -12.5h-174q-16 0 -28.5 12.5t-12.5 28.5v33q-147 -90 -289 -90q-152 0 -253 77t-101 265z M362 326q0 -74 34 -100.5t114 -26.5q104 0 209 57v252h-129q-133 0 -180.5 -41t-47.5 -133v-8z" />
<glyph unicode="b" horiz-adv-x="1181" d="M133 92v1426q0 16 12.5 28.5t28.5 12.5h188q16 0 28.5 -12.5t12.5 -28.5v-363q106 14 197 14q242 0 366 -135t124 -379v-157q0 -244 -124 -379t-366 -135q-205 0 -412 53q-35 8 -45 19t-10 36zM403 219q68 -14 197 -14q123 0 171 76.5t48 216.5v157q0 139 -48 216 t-171 77q-96 0 -197 -14v-715z" />
<glyph unicode="c" horiz-adv-x="958" d="M92 481v191q0 242 129 369.5t338 127.5q162 0 264 -26q27 -6 35 -17.5t8 -35.5v-134q0 -31 -37 -30h-6q-115 14 -264 14q-84 0 -140.5 -61.5t-56.5 -206.5v-191q0 -145 56.5 -206.5t140.5 -61.5q150 0 264 14h6q37 0 37 -30v-134q0 -25 -8 -36t-35 -17q-102 -27 -264 -26 q-209 0 -338 127.5t-129 369.5z" />
<glyph unicode="d" horiz-adv-x="1181" d="M92 498v157q0 244 124 379t366 135q90 0 196 -14v363q0 16 12.5 28.5t28.5 12.5h189q16 0 28.5 -12.5t12.5 -28.5v-1426q0 -25 -10.5 -36t-45.5 -19q-207 -53 -411 -53q-242 0 -366 135t-124 379zM362 498q0 -139 48.5 -216t171.5 -77q129 0 196 14v715q-100 14 -196 14 q-123 0 -171.5 -76.5t-48.5 -216.5v-157z" />
<glyph unicode="e" horiz-adv-x="1175" d="M98 498v151q0 242 129 381t363 139q231 0 359 -142t128 -378v-114q0 -51 -41 -52h-667v-6q0 -109 56 -184.5t189 -75.5q162 0 377 21h6q37 0 37 -31v-135q0 -47 -43 -54q-188 -35 -397 -34q-84 0 -165 24.5t-158.5 79.5t-125 161t-47.5 249zM371 676h434v8 q0 119 -59.5 185.5t-155.5 66.5q-98 0 -158.5 -66.5t-60.5 -185.5v-8z" />
<glyph unicode="f" horiz-adv-x="808" d="M31 1020v94q0 16 12 28.5t29 12.5h182v100q0 186 90 257t264 71q45 0 123 -16q37 -10 37 -33v-121q0 -35 -31 -35h-92q-74 0 -97.5 -23.5t-23.5 -99.5v-100h197q16 0 28.5 -12.5t12.5 -28.5v-123q0 -16 -12.5 -27.5t-28.5 -11.5h-197v-909q0 -16 -12 -29.5t-29 -13.5 h-186q-16 0 -29.5 13.5t-13.5 29.5v909l-182 29q-41 8 -41 39z" />
<glyph unicode="g" horiz-adv-x="1196" d="M106 -57q0 131 105 225q-92 70 -92 188v2q0 109 82 166q-84 86 -84 240v14q0 168 118.5 272.5t368.5 104.5h479q23 0 39.5 -16.5t16.5 -38.5v-86q0 -23 -6.5 -30t-26.5 -15l-68 -27q51 -74 52 -164v-14q0 -373 -486 -373q-137 0 -223 35q-35 -23 -35 -53q0 -53 70 -68 l241 -57q90 -20 133.5 -31.5t108 -33t95 -42t64.5 -52.5t46 -74t12 -95v-14q0 -322 -502 -322q-248 0 -378 89t-130 251v19zM371 -57v-19q0 -68 53 -101.5t190 -33.5q139 0 185.5 27.5t46.5 89.5v14q0 37 -45 61.5t-197 61.5l-182 43l-28.5 -42t-15.5 -39.5t-7 -61.5z M383 758q0 -162 221 -162q121 0 170 40t49 122v16q0 82 -48 128t-171 46q-221 0 -221 -174v-16z" />
<glyph unicode="h" horiz-adv-x="1212" d="M133 43v1475q0 16 12.5 28.5t28.5 12.5h188q16 0 28.5 -12.5t12.5 -28.5v-424q125 76 310 75q367 0 366 -452v-674q0 -16 -12 -29.5t-29 -13.5h-188q-16 0 -28.5 13.5t-12.5 29.5v674q0 135 -33 179t-135 44q-104 0 -238 -70v-827q0 -16 -12 -29.5t-29 -13.5h-188 q-16 0 -28.5 13.5t-12.5 29.5z" />
<glyph unicode="i" horiz-adv-x="548" d="M133 1350v180q0 16 13.5 28.5t29.5 12.5h199q16 0 28.5 -12.5t12.5 -28.5v-180q0 -16 -12.5 -28.5t-28.5 -12.5h-199q-16 0 -29.5 12.5t-13.5 28.5zM139 43v1071q0 16 12.5 28.5t28.5 12.5h189q16 0 28.5 -12.5t12.5 -28.5v-1071q0 -16 -12.5 -29.5t-28.5 -13.5h-189 q-16 0 -28.5 13.5t-12.5 29.5z" />
<glyph unicode="j" horiz-adv-x="548" d="M-68 -227q0 33 43 32h93q47 0 59 21.5t12 87.5v1200q0 16 12.5 28.5t28.5 12.5h189q16 0 28.5 -12.5t12.5 -28.5v-1200q0 -178 -76 -251t-228 -73q-61 0 -135 13q-39 6 -39 37v133zM135 1350v180q0 16 12.5 28.5t28.5 12.5h197q16 0 29.5 -12.5t13.5 -28.5v-180 q0 -16 -13.5 -28.5t-29.5 -12.5h-197q-16 0 -28.5 12.5t-12.5 28.5z" />
<glyph unicode="k" horiz-adv-x="1124" d="M133 43v1475q0 16 12.5 28.5t28.5 12.5h188q16 0 28.5 -12.5t12.5 -28.5v-854l351 466q18 25 47 25h229q31 0 31 -22q0 -10 -8 -21l-412 -506l416 -565q6 -8 6 -16q0 -25 -29 -25h-250q-33 0 -59 41l-322 467v-465q0 -16 -12 -29.5t-29 -13.5h-188q-16 0 -28.5 13.5 t-12.5 29.5z" />
<glyph unicode="l" horiz-adv-x="557" d="M143 43v1475q0 16 12.5 28.5t28.5 12.5h191q16 0 27.5 -12.5t11.5 -28.5v-1475q0 -16 -11.5 -29.5t-27.5 -13.5h-191q-16 0 -28.5 13.5t-12.5 29.5z" />
<glyph unicode="m" horiz-adv-x="1736" d="M133 43v1071q0 16 12.5 28.5t28.5 12.5h178q16 0 28.5 -12.5t12.5 -28.5v-43q154 98 293 98q164 0 240 -92q168 92 338 92q193 0 266.5 -113.5t73.5 -316.5v-696q0 -16 -12.5 -29.5t-28.5 -13.5h-189q-16 0 -28.5 13.5t-12.5 29.5v696q0 117 -30.5 158t-116.5 41 q-94 0 -191 -51q8 -59 9 -148v-696q0 -16 -12.5 -29.5t-28.5 -13.5h-189q-16 0 -28.5 13.5t-12.5 29.5v696q0 119 -27.5 159t-113.5 40q-63 0 -189 -68v-827q0 -16 -12 -29.5t-29 -13.5h-188q-16 0 -28.5 13.5t-12.5 29.5z" />
<glyph unicode="n" horiz-adv-x="1212" d="M133 43v1071q0 16 12.5 28.5t28.5 12.5h178q16 0 28.5 -12.5t12.5 -28.5v-43q88 57 159 77.5t173 20.5q106 0 179 -33.5t110 -99t51 -142.5t14 -183v-668q0 -16 -12 -29.5t-29 -13.5h-188q-16 0 -28.5 13.5t-12.5 29.5v668q0 141 -29.5 185t-144.5 44q-90 0 -232 -74 v-823q0 -16 -12 -29.5t-29 -13.5h-188q-16 0 -28.5 13.5t-12.5 29.5z" />
<glyph unicode="o" horiz-adv-x="1175" d="M98 494v165q0 227 128 368.5t361.5 141.5t361.5 -141t128 -369v-165q0 -227 -128 -368.5t-361.5 -141.5t-361.5 141.5t-128 368.5zM369 494q0 -129 56 -203t162.5 -74t163 74t56.5 203v165q0 129 -56.5 203t-163 74t-162.5 -74t-56 -203v-165z" />
<glyph unicode="p" horiz-adv-x="1181" d="M133 -365v1426q0 25 10.5 36t44.5 19q207 53 412 53q242 0 366 -135t124 -379v-157q0 -244 -124 -379t-366 -135q-90 0 -197 14v-363q0 -16 -12 -28.5t-29 -12.5h-188q-16 0 -28.5 12.5t-12.5 28.5zM403 219q100 -14 197 -14q123 0 171 76.5t48 216.5v157q0 139 -48 216 t-171 77q-129 0 -197 -14v-715z" />
<glyph unicode="q" horiz-adv-x="1181" d="M92 498v157q0 244 124 379t366 135q205 0 411 -53q35 -8 45.5 -19.5t10.5 -35.5v-1426q0 -16 -12.5 -28.5t-28.5 -12.5h-189q-16 0 -28.5 12.5t-12.5 28.5v363q-106 -14 -196 -14q-242 0 -366 135t-124 379zM362 498q0 -139 48.5 -216t171.5 -77q96 0 196 14v715 q-68 14 -196 14q-123 0 -171.5 -76.5t-48.5 -216.5v-157z" />
<glyph unicode="r" horiz-adv-x="768" d="M133 43v1071q0 16 12.5 28.5t28.5 12.5h178q16 0 28.5 -12.5t12.5 -28.5v-43q127 98 293 98q16 0 28.5 -12t12.5 -29v-147q0 -16 -12.5 -28.5t-28.5 -12.5q-141 0 -283 -74v-823q0 -16 -12 -29.5t-29 -13.5h-188q-16 0 -28.5 13.5t-12.5 29.5z" />
<glyph unicode="s" horiz-adv-x="1001" d="M92 862q0 307 389 307q174 0 365 -41q37 -10 37 -47v-118q0 -39 -33 -39h-8q-172 25 -338 24q-76 0 -109 -19.5t-33 -66.5q0 -23 18.5 -40t63.5 -44l269 -164q119 -72 157.5 -145.5t38.5 -165.5q0 -139 -104.5 -229t-296.5 -90q-213 0 -367 41q-39 10 -39 47v123 q0 12 10.5 22t24.5 10h8q180 -23 344 -22q88 0 117 24.5t29 73.5t-90 105l-281 172q-78 47 -125 121.5t-47 160.5z" />
<glyph unicode="t" horiz-adv-x="829" d="M41 1022v92q0 16 12.5 28.5t28.5 12.5h192v168q0 33 41 41l191 33h8q33 0 33 -31v-211h184q16 0 28.5 -12.5t12.5 -28.5v-121q0 -16 -12 -28.5t-29 -12.5h-184v-643q0 -78 12 -96t68 -18h108q43 0 43 -31v-129q0 -31 -39 -37q-86 -14 -139 -14q-182 0 -254 64.5 t-72 260.5v643l-192 29q-41 8 -41 41z" />
<glyph unicode="u" horiz-adv-x="1212" d="M133 444v668q0 16 12.5 29.5t28.5 13.5h188q16 0 28.5 -13.5t12.5 -29.5v-668q0 -154 48 -196q43 -37 127 -37q78 0 231 82v819q0 16 12.5 29.5t28.5 13.5h188q16 0 28.5 -13.5t12.5 -29.5v-1071q0 -16 -12 -28.5t-29 -12.5h-188q-16 0 -28.5 12.5t-12.5 28.5v47 q-156 -102 -321.5 -102t-251.5 86q-103 102 -103 372z" />
<glyph unicode="v" horiz-adv-x="1128" d="M49 1122q0 33 33 33h205q31 0 41 -41l196 -858q10 -51 39 -51t39 51l197 858q10 41 43 41h205q33 0 32 -33q0 -10 -2 -14l-258 -932q-51 -193 -256 -192q-203 0 -254 192l-258 932q-2 4 -2 14z" />
<glyph unicode="w" horiz-adv-x="1677" d="M51 1108v6q0 16 12.5 28.5t28.5 12.5h199q33 0 37 -37l129 -866q4 -29 10 -29q8 0 14 29l170 688q14 57 37 72.5t78 15.5h143q55 0 78 -15.5t37 -72.5l170 -688q6 -29 14 -29q6 0 11 29l129 866q4 37 36 37h199q16 0 28.5 -12.5t12.5 -28.5v-6l-186 -942 q-18 -96 -55 -134t-128 -38h-55q-156 0 -194 160l-162 626q-2 10 -6 10.5t-7 -10.5l-161 -626q-39 -160 -195 -160h-55q-90 0 -127 38t-55 134z" />
<glyph unicode="x" horiz-adv-x="1140" d="M35 23q0 10 6 18l367 555l-347 518q-4 8 -4 12q0 10 9.5 19.5t23.5 9.5h234q27 0 53 -41l207 -319l192 319q25 41 55 41h211q25 0 25 -22q0 -10 -6 -19l-338 -516l373 -557q4 -8 4 -14q0 -27 -31 -27h-233q-29 0 -56 41l-233 360l-221 -360q-27 -41 -56 -41h-211 q-24 0 -24 23z" />
<glyph unicode="y" horiz-adv-x="1146" d="M49 1122q0 33 39 33h207q31 0 39 -37l207 -833q10 -45 28 -45h2h11h6l221 880q8 35 41 35h209q14 0 25.5 -10t11.5 -25q0 -8 -2 -12l-342 -1196q-35 -121 -76 -185.5t-123 -100.5t-219 -36q-129 0 -217 27q-43 12 -43 35v131q0 37 41 37h4q20 0 109 -6.5t122 -6.5 q70 0 106 27t56 105l16 61h-30q-27 0 -47.5 5t-46 20.5t-47 52.5t-38.5 92l-268 938q-2 6 -2 14z" />
<glyph unicode="z" horiz-adv-x="1003" d="M82 82v88q0 31 27 66l495 682q6 8 6 12q0 6 -12 6h-463q-37 0 -37 33v145q0 16 12.5 28.5t28.5 12.5h697q33 0 57.5 -24.5t24.5 -59.5v-117q0 -33 -11 -47l-477 -653l-4 -6q0 -8 12 -8h447q37 0 37 -33v-166q0 -16 -12.5 -28.5t-28.5 -12.5h-717q-33 0 -57.5 24.5 t-24.5 57.5z" />
<glyph unicode="{" horiz-adv-x="743" d="M76 477v164q63 43 91 96.5t28 132.5v310q0 201 73.5 271.5t298.5 70.5h117q39 0 39 -35v-150q0 -33 -39 -32h-96q-76 0 -97.5 -25t-21.5 -100v-310q0 -215 -160 -311q162 -96 162 -311v-311q0 -76 21.5 -100.5t97.5 -24.5h94q39 0 39 -33v-150q0 -35 -39 -35h-115 q-225 0 -298.5 71t-73.5 272v311q0 147 -121 229z" />
<glyph unicode="|" horiz-adv-x="561" d="M143 -356v1837q0 16 12.5 28.5t28.5 12.5h195q16 0 27.5 -12.5t11.5 -28.5v-1837q0 -16 -11.5 -28.5t-27.5 -12.5h-195q-16 0 -28.5 12.5t-12.5 28.5z" />
<glyph unicode="}" horiz-adv-x="743" d="M20 -221q0 33 39 33h95q76 0 97 24.5t21 100.5v311q0 215 162 311q-160 96 -160 311v310q0 76 -21.5 100.5t-96.5 24.5h-97q-39 0 -39 32v150q0 35 39 35h117q225 0 299 -71t74 -271v-310q0 -80 27.5 -133t91.5 -96v-164q-121 -82 -121 -229v-311q0 -201 -74 -272 t-299 -71h-115q-39 0 -39 35v150z" />
<glyph unicode="~" d="M162 741v54q0 152 65.5 219t200.5 67q90 0 152 -43l180 -123q39 -27 82 -26q37 0 54 18.5t17 65.5v53q0 41 35 41h144q39 0 38 -41v-53q0 -152 -64.5 -218.5t-199.5 -66.5q-94 0 -153 41l-181 125q-39 27 -79 27q-74 0 -74 -86v-54q0 -41 -35 -41h-145q-37 0 -37 41z" />
<glyph unicode="&#xa1;" horiz-adv-x="524" d="M123 -371l31 1041q0 16 12 28.5t29 12.5h133q16 0 29.5 -12.5t13.5 -28.5l30 -1041q0 -14 -13 -26.5t-30 -12.5h-194q-16 0 -28.5 11.5t-12.5 27.5zM131 883v231q0 16 11.5 28.5t27.5 12.5h184q16 0 27.5 -12.5t11.5 -28.5v-231q0 -39 -39 -39h-184q-39 0 -39 39z" />
<glyph unicode="&#xa2;" d="M238 481v191q0 190 82.5 311t224.5 164v180q0 16 12 28.5t29 12.5h168q16 0 28.5 -12.5t12.5 -28.5v-160q88 -4 174 -24q27 -6 35 -17.5t8 -35.5v-134q0 -31 -37 -30h-6q-115 14 -264 14q-84 0 -140.5 -61.5t-56.5 -206.5v-191q0 -145 56.5 -206.5t140.5 -61.5 q150 0 264 14h6q37 0 37 -30v-134q0 -25 -8.5 -36t-34.5 -17q-86 -20 -174 -24v-164q0 -16 -12.5 -28.5t-28.5 -12.5h-168q-16 0 -28.5 12t-12.5 29v184q-141 43 -224 164t-83 311z" />
<glyph unicode="&#xa3;" d="M141 702v154q0 16 12.5 27.5t28.5 11.5h101v197q0 209 111.5 311t385.5 102q176 0 334 -28q25 -4 31 -12.5t6 -26.5v-150q0 -37 -35 -37h-4q-272 20 -332 21q-119 0 -169 -38t-50 -142v-197h379q16 0 28.5 -11.5t12.5 -27.5v-154q0 -37 -39 -36h-381v-256q0 -96 -49 -183 h596q41 0 41 -34v-156q0 -37 -41 -37h-875q-37 0 -36 53v105q0 23 16 47q70 102 70 205v256h-103q-39 -1 -39 36z" />
<glyph unicode="&#xa4;" d="M121 1145q0 14 10 24l98 99q10 10 21 10q16 0 33 -16l168 -168q90 55 196 55q100 0 189 -53l172 172q14 14 30 14q12 0 23 -10l98 -98q10 -10 10 -23q0 -16 -14 -31l-174 -172q53 -88 53 -186q0 -106 -55 -195l170 -172q14 -14 14 -30q0 -12 -10 -23l-96 -98 q-10 -10 -23 -11q-16 0 -30 15l-177 176q-82 -49 -180 -49q-102 0 -186 51l-174 -172q-20 -16 -33 -16q-10 0 -21 10l-96 98q-10 14 -10 25q0 16 14 30l172 170q-55 90 -55 191q0 98 49 180l-172 172q-14 15 -14 31zM459 766q0 -78 56 -134.5t134 -56.5t133.5 56.5 t55.5 134.5t-55.5 132t-133.5 54t-134 -54t-56 -132z" />
<glyph unicode="&#xa5;" d="M59 1495q0 27 33 27h234q20 0 36 -33l283 -602l283 602q16 33 39 33h231q33 0 33 -27q0 -8 -6 -20l-234 -465h191q41 0 41 -37v-129q0 -37 -39 -37h-293l-103 -203v-24h394q41 0 41 -37v-129q0 -37 -39 -37h-396v-336q0 -16 -11 -28.5t-27 -12.5h-211q-37 0 -37 41v336 h-398q-39 0 -38 37v129q0 37 40 37h396v24l-103 203h-295q-39 0 -38 37v129q0 37 40 37h193l-233 465q-7 12 -7 20z" />
<glyph unicode="&#xa6;" horiz-adv-x="561" d="M143 317q0 16 12.5 28.5t28.5 12.5h195q16 0 27.5 -12t11.5 -29v-706q0 -16 -11.5 -29.5t-27.5 -13.5h-195q-16 0 -28.5 13t-12.5 30v706zM143 743v707q0 16 12.5 28.5t28.5 12.5h195q16 0 27.5 -12.5t11.5 -28.5v-707q0 -16 -11.5 -29.5t-27.5 -13.5h-195 q-16 0 -28.5 13.5t-12.5 29.5z" />
<glyph unicode="&#xa7;" horiz-adv-x="1173" d="M90 737q0 131 57 211q-57 88 -57 215q0 180 118 277.5t392 97.5q248 0 404 -37q39 -8 38 -39v-162q0 -16 -11 -26t-27 -10h-3q-360 23 -397 22h-6q-113 0 -162 -33.5t-49 -103.5q0 -51 33 -90t131 -92l246 -138q162 -90 224 -185t62 -224q0 -127 -53 -219q53 -82 53 -207 q0 -186 -126 -311t-410 -125q-207 0 -377 39q-41 8 -41 38v160q0 16 12.5 26.5t28.5 10.5h4q242 -25 363 -25h14q127 2 176 47.5t49 133.5q0 59 -32.5 99t-133.5 99l-256 152q-152 90 -208 181t-56 218zM315 729q0 -68 39 -114t156 -115l158 -94q98 -59 149 -107 q25 47 25 123q0 80 -42 130t-173 128l-162 96q-80 47 -111 76q-39 -45 -39 -123z" />
<glyph unicode="&#xa8;" horiz-adv-x="849" d="M104 1350v180q0 16 13.5 28.5t29.5 12.5h148q16 0 29.5 -12.5t13.5 -28.5v-180q0 -16 -13.5 -28.5t-29.5 -12.5h-148q-16 0 -29.5 12.5t-13.5 28.5zM514 1350v180q0 16 13.5 28.5t29.5 12.5h148q16 0 29.5 -12.5t13.5 -28.5v-180q0 -16 -13.5 -28.5t-29.5 -12.5h-148 q-16 0 -29.5 12.5t-13.5 28.5z" />
<glyph unicode="&#xa9;" horiz-adv-x="1536" d="M92 766q0 281 197.5 480.5t476 199.5t478.5 -199.5t200 -480.5q0 -279 -198.5 -476.5t-479.5 -197.5q-279 0 -476.5 197.5t-197.5 476.5zM190 766q0 -238 169 -405.5t407 -167.5t407.5 167.5t169.5 405.5t-169.5 409t-407.5 171t-407 -171t-169 -409zM438 711v123 q0 195 88 289t246 94q106 0 176 -19q29 -6 29 -27v-100q0 -25 -27 -24h-4q-113 10 -174 10q-156 0 -156 -223v-123q0 -223 156 -224q61 0 174 11h4q27 0 27 -25v-98q0 -23 -29 -29q-74 -18 -176 -18q-158 0 -246 94t-88 289z" />
<glyph unicode="&#xaa;" horiz-adv-x="686" d="M66 1036v15q0 197 311 196h53v27q0 59 -23.5 82.5t-72.5 23.5q-84 0 -191 -10h-2q-29 0 -28 29v78q0 23 28 30q102 25 193 25q276 0 276 -258v-391q0 -27 -18 -33q-113 -31 -238 -31q-150 0 -219 53t-69 164zM238 1036q0 -47 25.5 -66.5t90.5 -19.5q2 0 76 8v183l-14 2 h-25q-12 0 -14 -2q-76 0 -107.5 -20.5t-31.5 -69.5v-15z" />
<glyph unicode="&#xab;" horiz-adv-x="1411" d="M113 577.5q0 34.5 16 51.5l332 364q27 27 61 27h195q31 0 31 -23q0 -8 -7 -14l-370 -405l370 -406q6 -6 7 -14q0 -23 -31 -23h-195q-35 0 -61 27l-332 364q-16 17 -16 51.5zM700 577.5q0 34.5 17 51.5l332 364q27 27 61 27h195q31 0 30 -23q0 -8 -6 -14l-371 -405 l371 -406q6 -6 6 -14q0 -23 -30 -23h-195q-35 0 -61 27l-332 364q-17 17 -17 51.5z" />
<glyph unicode="&#xac;" d="M190 979v143q0 33 41 33h834q37 0 37 -35v-704q0 -16 -12.5 -28.5t-28.5 -12.5h-127q-16 0 -28.5 12t-12.5 29v530h-662q-41 0 -41 33z" />
<glyph unicode="&#xad;" horiz-adv-x="657" d="M88 565v129q0 16 12.5 27.5t28.5 11.5h401q39 0 39 -39v-129q0 -37 -39 -37h-401q-41 0 -41 37z" />
<glyph unicode="&#xae;" horiz-adv-x="1224" d="M49 991.5q0 233.5 165 398t398.5 164.5t399.5 -164.5t166 -398t-166 -398.5t-399.5 -165t-398.5 165t-165 398.5zM145 991q0 -193 136.5 -330t331 -137t331.5 137.5t137 330t-137 330.5t-332 138q-193 0 -330 -137t-137 -332zM365 680v608q0 49 45 55q61 8 172 9 q137 0 207.5 -49.5t70.5 -165.5v-13q0 -135 -127 -180l148 -252q4 -8 4 -16q0 -23 -23 -23h-104q-14 0 -23 17l-143 241q-6 10 -21 11h-41h-22v-242q0 -27 -25 -27h-94q-24 0 -24 27zM504 1032q8 0 46 -1t42 -1q131 0 131 94v13q0 49 -30.5 70.5t-100.5 21.5h-64h-24v-197z " />
<glyph unicode="&#xaf;" horiz-adv-x="849" d="M68 1393v116q0 37 41 37h634q41 0 41 -37v-116q0 -37 -41 -37h-634q-41 0 -41 37z" />
<glyph unicode="&#xb0;" horiz-adv-x="722" d="M57 1233q0 127 90.5 216t215 89t215 -89t90.5 -216t-90.5 -216t-215 -89t-215 89t-90.5 216zM203 1232.5q0 -65.5 47 -112.5t112.5 -47t113.5 47t48 112.5t-48 114t-113.5 48.5t-112.5 -48.5t-47 -114z" />
<glyph unicode="&#xb1;" d="M170 2v115q0 33 41 33h870q41 0 41 -33v-115q0 -33 -41 -33h-870q-41 0 -41 33zM170 729v143q0 33 41 33h330v332q0 41 32 41h144q33 0 33 -41v-332h331q41 0 41 -33v-143q0 -33 -41 -33h-331v-329q0 -41 -33 -41h-144q-33 0 -32 41v329h-330q-41 0 -41 33z" />
<glyph unicode="&#xb2;" horiz-adv-x="710" d="M84 731v109q0 182 174 299l111 73q53 35 73.5 60.5t20.5 64.5t-26.5 54.5t-90.5 15.5q-86 0 -221 -16q-20 -2 -27.5 8t-7.5 26v66q0 25 29 33q100 29 227 28q150 0 217.5 -52t67.5 -163q0 -123 -146 -223l-98 -67q-84 -57 -115.5 -98.5t-35.5 -100.5h352q35 0 35 -33v-84 q0 -35 -35 -35h-469q-14 0 -24.5 10.5t-10.5 24.5z" />
<glyph unicode="&#xb3;" horiz-adv-x="710" d="M86 750v67q0 39 37 33q141 -16 209 -16q113 0 112 104v25q0 100 -90 100h-194q-35 0 -35 33v69q0 33 35 33h194q90 0 90 96v19q0 94 -112 94q-53 0 -213 -16q-33 0 -33 32v68q0 25 33 33q106 29 213 28q133 0 212 -57t79 -182v-19q0 -113 -84 -164q84 -55 84 -167v-25 q0 -125 -80 -187.5t-211 -62.5q-98 0 -213 27q-33 8 -33 35z" />
<glyph unicode="&#xb4;" horiz-adv-x="849" d="M291 1298q0 12 8 21l195 246q25 31 53 30h215q23 0 22 -14q0 -8 -8 -16l-241 -254q-25 -27 -50 -27h-176q-18 0 -18 14z" />
<glyph unicode="&#xb5;" horiz-adv-x="1202" d="M123 -352v1464q0 16 12 29.5t29 13.5h190q16 0 28.5 -13.5t12.5 -29.5v-709q0 -197 213 -196q113 0 197 22v883q0 16 12 29.5t29 13.5h190q16 0 29.5 -13.5t13.5 -29.5v-1026q0 -39 -55 -53q-188 -49 -416 -49q-131 0 -211 63v-399q0 -41 -37 -41h-198q-16 0 -27.5 12.5 t-11.5 28.5z" />
<glyph unicode="&#xb6;" horiz-adv-x="1318" d="M92 969v96q0 215 137.5 336t356.5 121h577q33 0 33 -39v-1843q0 -16 -10 -27.5t-25 -11.5h-71q-14 0 -24.5 11t-10.5 28v1744h-125v-1744q0 -16 -10.5 -27.5t-24.5 -11.5h-72q-14 0 -24.5 11t-10.5 28v872h-202q-219 0 -356.5 121t-137.5 336z" />
<glyph unicode="&#xb7;" horiz-adv-x="530" d="M133 674v231q0 16 12.5 27.5t28.5 11.5h182q16 0 28.5 -11t12.5 -28v-231q0 -16 -12 -28.5t-29 -12.5h-182q-16 0 -28.5 12.5t-12.5 28.5z" />
<glyph unicode="&#xb8;" horiz-adv-x="825" d="M113 -367q0 12 8 21l192 246q25 31 54 30h217q23 0 22 -14q0 -8 -8 -16l-244 -252q-25 -29 -47 -29h-176q-18 0 -18 14z" />
<glyph unicode="&#xb9;" horiz-adv-x="520" d="M47 1343v109q0 14 19 23l165 63q12 6 43 6h74q35 0 35 -35v-778q0 -14 -10.5 -24.5t-24.5 -10.5h-108q-14 0 -24.5 10.5t-10.5 24.5v629l-115 -39q-43 -15 -43 22z" />
<glyph unicode="&#xba;" horiz-adv-x="731" d="M68 1141v69q0 158 76.5 240t222 82t222.5 -82t77 -240v-69q0 -158 -77 -240t-222.5 -82t-222 82t-76.5 240zM248 1141q0 -170 119 -170q117 0 116 170v69q0 88 -27.5 128t-88.5 40q-119 0 -119 -168v-69z" />
<glyph unicode="&#xbb;" horiz-adv-x="1411" d="M106 158q0 8 7 14l370 406l-370 405q-6 6 -7 14q0 23 31 23h195q35 0 61 -27l332 -364q16 -16 16 -51t-16 -52l-332 -364q-27 -27 -61 -27h-195q-31 0 -31 23zM694 158q0 8 6 14l371 406l-371 405q-6 6 -6 14q0 23 31 23h195q35 0 61 -27l332 -364q16 -16 16 -51t-16 -52 l-332 -364q-27 -27 -61 -27h-195q-31 0 -31 23z" />
<glyph unicode="&#xbc;" horiz-adv-x="1452" d="M61 1343v109q0 14 19 23l166 63q12 6 43 6h73q35 0 35 -35v-778q0 -14 -10 -24.5t-25 -10.5h-108q-14 0 -24.5 10.5t-10.5 24.5v629l-115 -39q-43 -15 -43 22zM131 12q0 14 8 25l858 1450q20 35 45 35h166q20 0 21 -17q0 -14 -8 -24l-859 -1452q-20 -35 -43 -35h-167 q-21 0 -21 18zM754 231v91q0 23 16 45l340 456q20 25 41 25h100q14 0 24.5 -10.5t10.5 -24.5v-469h72q12 0 22.5 -10t10.5 -25v-78q0 -14 -10.5 -24t-22.5 -10h-72v-162q0 -35 -33 -35h-114q-31 0 -31 35v162h-322q-12 0 -22 10t-10 24zM932 344h178v246z" />
<glyph unicode="&#xbd;" horiz-adv-x="1538" d="M61 1343v109q0 14 19 23l166 63q12 6 43 6h73q35 0 35 -35v-778q0 -14 -10 -24.5t-25 -10.5h-108q-14 0 -24.5 10.5t-10.5 24.5v629l-115 -39q-43 -15 -43 22zM131 12q0 14 8 25l858 1450q20 35 45 35h166q20 0 21 -17q0 -14 -8 -24l-859 -1452q-20 -35 -43 -35h-167 q-21 0 -21 18zM930 35v108q0 88 50 169t124 130l110 74q53 35 74 60.5t21 64.5t-27 54.5t-90 15.5q-86 0 -221 -17q-14 0 -24.5 10.5t-10.5 24.5v66q0 25 31 32h-2q100 29 227 29q150 0 217.5 -52t67.5 -163q0 -123 -146 -223l-98 -68q-76 -51 -112 -96t-40 -102h353 q35 0 34 -33v-84q0 -14 -10 -24.5t-24 -10.5h-469q-14 0 -24.5 10.5t-10.5 24.5z" />
<glyph unicode="&#xbe;" horiz-adv-x="1576" d="M61 750v67q0 33 37 33q141 -16 209 -16q113 0 113 104v25q0 100 -90 100h-195q-35 0 -35 33v69q0 33 35 33h195q90 0 90 96v19q0 94 -113 94q-53 0 -213 -16q-33 0 -33 32v68q0 25 33 33q106 29 213 28q133 0 212 -57t79 -182v-19q0 -113 -84 -164q84 -55 84 -167v-25 q0 -125 -80 -187.5t-211 -62.5q-98 0 -213 27q-33 8 -33 35zM256 12q0 14 8 25l858 1450q20 35 45 35h166q20 0 21 -17q0 -14 -8 -24l-859 -1452q-20 -35 -43 -35h-168q-20 0 -20 18zM879 231v91q0 23 16 45l340 456q20 25 41 25h100q14 0 24.5 -10.5t10.5 -24.5v-469h72 q12 0 22.5 -10t10.5 -25v-78q0 -14 -10.5 -24t-22.5 -10h-72v-162q0 -35 -33 -35h-114q-31 0 -31 35v162h-322q-12 0 -22 10t-10 24zM1057 344h178v246z" />
<glyph unicode="&#xbf;" horiz-adv-x="894" d="M61 -37q0 45 7.5 80t41 97.5t97.5 138.5l125 147q6 6 22.5 25.5t20.5 25.5t16 21.5t15.5 23.5l9.5 21.5t8 25t2 25.5v78q0 16 12.5 27.5t28.5 11.5h170q39 0 39 -39v-78q0 -96 -24.5 -156.5t-96.5 -144.5l-131 -152q-59 -70 -59 -178v-33q0 -43 26.5 -59t91.5 -16 q109 0 308 22h8q35 0 35 -45v-127q0 -29 -6.5 -40t-30.5 -17q-141 -37 -314 -37q-211 0 -316.5 71.5t-105.5 247.5v33zM418 885v231q0 16 12 27.5t29 11.5h184q16 0 28.5 -11t12.5 -28v-231q0 -16 -12.5 -28.5t-28.5 -12.5h-184q-16 0 -28.5 12.5t-12.5 28.5z" />
<glyph unicode="&#xc0;" horiz-adv-x="1323" d="M39 35l2 4v6l336 1284q53 209 284.5 209t284.5 -209l336 -1284v-6l2 -4q0 -35 -37 -35h-217q-31 0 -39 35l-94 389h-471l-94 -389q-8 -35 -39 -35h-217q-37 0 -37 35zM395 1923q0 14 23 14h217q29 0 53 -30l193 -246q8 -8 8 -21q0 -14 -19 -14h-176q-23 0 -47 27 l-244 254q-8 8 -8 16zM481 657h361l-148 609q-8 33 -32.5 32.5t-32.5 -32.5z" />
<glyph unicode="&#xc1;" horiz-adv-x="1323" d="M39 35l2 4v6l336 1284q53 209 284.5 209t284.5 -209l336 -1284v-6l2 -4q0 -35 -37 -35h-217q-31 0 -39 35l-94 389h-471l-94 -389q-8 -35 -39 -35h-217q-37 0 -37 35zM481 657h361l-148 609q-8 33 -32.5 32.5t-32.5 -32.5zM512 1640q0 12 8 21l195 246q25 31 53 30h215 q23 0 23 -14q0 -8 -9 -16l-241 -254q-25 -27 -49 -27h-177q-18 0 -18 14z" />
<glyph unicode="&#xc2;" horiz-adv-x="1323" d="M39 35l2 4v6l336 1284q53 209 284.5 209t284.5 -209l336 -1284v-6l2 -4q0 -35 -37 -35h-217q-31 0 -39 35l-94 389h-471l-94 -389q-8 -35 -39 -35h-217q-37 0 -37 35zM279 1640q0 12 8 21l188 246q25 31 53 30h267q29 0 53 -30l186 -246q8 -8 8 -21q0 -14 -18 -14h-170 q-23 0 -47 27l-145 166l-146 -166q-25 -27 -49 -27h-170q-18 0 -18 14zM481 657h361l-148 609q-8 33 -32.5 32.5t-32.5 -32.5z" />
<glyph unicode="&#xc3;" horiz-adv-x="1323" d="M39 35l2 4v6l336 1284q53 209 284.5 209t284.5 -209l336 -1284v-6l2 -4q0 -35 -37 -35h-217q-31 0 -39 35l-94 389h-471l-94 -389q-8 -35 -39 -35h-217q-37 0 -37 35zM309 1659v43q0 229 230 229q82 0 141 -45l90 -67q53 -41 86 -41q57 0 57 67v43q0 33 29 33h117 q29 0 28 -33v-45q0 -229 -227 -229q-80 0 -143 47l-90 68q-55 43 -86 43q-57 0 -58 -70v-43q0 -33 -28 -33h-117q-29 0 -29 33zM481 657h361l-148 609q-8 33 -32.5 32.5t-32.5 -32.5z" />
<glyph unicode="&#xc4;" horiz-adv-x="1323" d="M39 35l2 4v6l336 1284q53 209 284.5 209t284.5 -209l336 -1284v-6l2 -4q0 -35 -37 -35h-217q-31 0 -39 35l-94 389h-471l-94 -389q-8 -35 -39 -35h-217q-37 0 -37 35zM338 1688v180q0 16 13.5 28.5t29.5 12.5h147q16 0 29.5 -12.5t13.5 -28.5v-180q0 -16 -13 -28.5 t-30 -12.5h-147q-16 0 -29.5 12.5t-13.5 28.5zM481 657h361l-148 609q-8 33 -32.5 32.5t-32.5 -32.5zM748 1688v180q0 16 13 28.5t30 12.5h147q16 0 29.5 -12.5t13.5 -28.5v-180q0 -16 -13.5 -28.5t-29.5 -12.5h-147q-16 0 -29.5 12.5t-13.5 28.5z" />
<glyph unicode="&#xc5;" horiz-adv-x="1323" d="M39 35l2 4v6l336 1284q53 209 284.5 209t284.5 -209l336 -1284v-6l2 -4q0 -35 -37 -35h-217q-31 0 -39 35l-94 389h-471l-94 -389q-8 -35 -39 -35h-217q-37 0 -37 35zM432 1820.5q0 94.5 66.5 161t161 66.5t160 -66.5t65.5 -161t-65.5 -160t-160 -65.5t-161 65.5 t-66.5 160zM481 657h361l-148 609q-8 33 -32.5 32.5t-32.5 -32.5zM565 1823q0 -41 28 -70t66 -29q41 0 70 29t29 70q0 39 -29 67.5t-70 28.5q-39 0 -66.5 -27.5t-27.5 -68.5z" />
<glyph unicode="&#xc6;" horiz-adv-x="1802" d="M39 35l2 4v6l336 1284q16 68 50 110t80 58t76.5 20.5t78.5 4.5h976q41 0 41 -43v-144q0 -16 -12 -28.5t-29 -12.5h-518v-397h494q16 0 28.5 -12.5t12.5 -28.5v-147q0 -16 -12.5 -28.5t-28.5 -12.5h-494v-265q0 -100 36 -138t126 -38h356q16 0 28.5 -12t12.5 -29v-131 q0 -20 -8 -29.5t-33 -13.5q-131 -29 -327 -28q-109 0 -188 17t-147.5 61t-103 129t-34.5 212v21h-412l-94 -389q-8 -35 -39 -35h-217q-37 0 -37 35zM481 657h357v641h-176q-25 0 -33 -32z" />
<glyph unicode="&#xc7;" horiz-adv-x="1153" d="M113 610v301q0 147 36.5 262t95 181.5t138.5 109.5t154.5 58.5t154.5 15.5q201 0 324 -33q45 -14 45 -47v-137q0 -43 -39 -43h-6q-190 16 -320 16q-297 0 -297 -383v-301q0 -383 297 -383q129 0 320 17h6q39 0 39 -43v-138q0 -33 -45 -47q-123 -33 -324 -32 q-80 0 -154.5 16t-154.5 59t-138.5 111t-95 181.5t-36.5 258.5zM365 -367q0 8 8 21l192 246q25 31 53 30h218q25 0 24 -14q0 -6 -10 -16l-244 -252q-25 -29 -47 -29h-176q-18 0 -18 14z" />
<glyph unicode="&#xc8;" horiz-adv-x="1179" d="M154 403v715q0 127 34.5 212t103 129t147.5 61.5t188 17.5q205 0 389 -29q23 -4 32 -13t9 -30v-131q0 -16 -12.5 -28.5t-28.5 -12.5h-418q-90 0 -126 -37.5t-36 -138.5v-221h555q16 0 28.5 -12.5t12.5 -28.5v-147q0 -16 -12 -28.5t-29 -12.5h-555v-265q0 -100 36 -138 t126 -38h418q16 0 28.5 -12t12.5 -29v-131q0 -20 -9.5 -29.5t-31.5 -13.5q-184 -29 -389 -28q-109 0 -188 17t-147.5 61t-103 129t-34.5 212zM332 1923q0 14 22 14h217q29 0 54 -30l192 -246q8 -8 8 -21q0 -14 -18 -14h-176q-23 0 -47 27l-244 254q-8 8 -8 16z" />
<glyph unicode="&#xc9;" horiz-adv-x="1179" d="M154 403v715q0 127 34.5 212t103 129t147.5 61.5t188 17.5q205 0 389 -29q23 -4 32 -13t9 -30v-131q0 -16 -12.5 -28.5t-28.5 -12.5h-418q-90 0 -126 -37.5t-36 -138.5v-221h555q16 0 28.5 -12.5t12.5 -28.5v-147q0 -16 -12 -28.5t-29 -12.5h-555v-265q0 -100 36 -138 t126 -38h418q16 0 28.5 -12t12.5 -29v-131q0 -20 -9.5 -29.5t-31.5 -13.5q-184 -29 -389 -28q-109 0 -188 17t-147.5 61t-103 129t-34.5 212zM436 1640q0 12 8 21l195 246q25 31 53 30h215q23 0 23 -14q0 -8 -8 -16l-242 -254q-25 -27 -49 -27h-176q-19 0 -19 14z" />
<glyph unicode="&#xca;" horiz-adv-x="1179" d="M154 403v715q0 127 34.5 212t103 129t147.5 61.5t188 17.5q205 0 389 -29q23 -4 32 -13t9 -30v-131q0 -16 -12.5 -28.5t-28.5 -12.5h-418q-90 0 -126 -37.5t-36 -138.5v-221h555q16 0 28.5 -12.5t12.5 -28.5v-147q0 -16 -12 -28.5t-29 -12.5h-555v-265q0 -100 36 -138 t126 -38h418q16 0 28.5 -12t12.5 -29v-131q0 -20 -9.5 -29.5t-31.5 -13.5q-184 -29 -389 -28q-109 0 -188 17t-147.5 61t-103 129t-34.5 212zM227 1642q0 12 9 21l188 246q25 31 53 30h266q29 0 54 -30l186 -246q8 -8 8 -21q0 -14 -18 -14h-170q-23 0 -47 27l-146 166 l-145 -166q-25 -27 -49 -27h-170q-19 0 -19 14z" />
<glyph unicode="&#xcb;" horiz-adv-x="1179" d="M154 403v715q0 127 34.5 212t103 129t147.5 61.5t188 17.5q205 0 389 -29q23 -4 32 -13t9 -30v-131q0 -16 -12.5 -28.5t-28.5 -12.5h-418q-90 0 -126 -37.5t-36 -138.5v-221h555q16 0 28.5 -12.5t12.5 -28.5v-147q0 -16 -12 -28.5t-29 -12.5h-555v-265q0 -100 36 -138 t126 -38h418q16 0 28.5 -12t12.5 -29v-131q0 -20 -9.5 -29.5t-31.5 -13.5q-184 -29 -389 -28q-109 0 -188 17t-147.5 61t-103 129t-34.5 212zM274 1688v180q0 16 13.5 28.5t29.5 12.5h148q16 0 29.5 -12.5t13.5 -28.5v-180q0 -16 -13.5 -28.5t-29.5 -12.5h-148 q-16 0 -29.5 12.5t-13.5 28.5zM684 1688v180q0 16 13.5 28.5t29.5 12.5h147q16 0 30 -12.5t14 -28.5v-180q0 -16 -13.5 -28.5t-30.5 -12.5h-147q-16 0 -29.5 12.5t-13.5 28.5z" />
<glyph unicode="&#xcc;" horiz-adv-x="591" d="M-20 1923q0 14 22 14h217q29 0 53 -30l193 -246q8 -8 8 -21q0 -14 -18 -14h-176q-23 0 -48 27l-243 254q-8 8 -8 16zM154 41v1442q0 16 12 27.5t29 11.5h202q16 0 28.5 -11.5t12.5 -27.5v-1442q0 -16 -12 -28.5t-29 -12.5h-202q-16 0 -28.5 12.5t-12.5 28.5z" />
<glyph unicode="&#xcd;" horiz-adv-x="591" d="M127 1640q0 12 8 21l195 246q25 31 53 30h215q23 0 23 -14q0 -8 -9 -16l-241 -254q-25 -27 -49 -27h-177q-18 0 -18 14zM154 41v1442q0 16 12 27.5t29 11.5h202q16 0 28.5 -11.5t12.5 -27.5v-1442q0 -16 -12 -28.5t-29 -12.5h-202q-16 0 -28.5 12.5t-12.5 28.5z" />
<glyph unicode="&#xce;" horiz-adv-x="591" d="M-84 1640q0 12 8 21l189 246q25 31 53 30h266q29 0 53 -30l187 -246q8 -8 8 -21q0 -14 -18 -14h-170q-23 0 -48 27l-145 166l-145 -166q-25 -27 -50 -27h-170q-18 0 -18 14zM154 41v1442q0 16 12 27.5t29 11.5h202q16 0 28.5 -11.5t12.5 -27.5v-1442q0 -16 -12 -28.5 t-29 -12.5h-202q-16 0 -28.5 12.5t-12.5 28.5z" />
<glyph unicode="&#xcf;" horiz-adv-x="591" d="M-27 1688v180q0 16 13.5 28.5t29.5 12.5h148q16 0 29.5 -12.5t13.5 -28.5v-180q0 -16 -13.5 -28.5t-29.5 -12.5h-148q-16 0 -29.5 12.5t-13.5 28.5zM154 41v1442q0 16 12 27.5t29 11.5h202q16 0 28.5 -11.5t12.5 -27.5v-1442q0 -16 -12 -28.5t-29 -12.5h-202 q-16 0 -28.5 12.5t-12.5 28.5zM383 1688v180q0 16 13.5 28.5t29.5 12.5h147q16 0 29.5 -12.5t13.5 -28.5v-180q0 -16 -13 -28.5t-30 -12.5h-147q-16 0 -29.5 12.5t-13.5 28.5z" />
<glyph unicode="&#xd0;" horiz-adv-x="1366" d="M-4 707v153q0 37 39 37h119v553q0 53 53 63q147 25 403 25q309 0 476 -162t167 -465v-301q0 -303 -166.5 -464.5t-476.5 -161.5q-256 0 -403 24q-53 10 -53 64v596h-119q-39 0 -39 39zM438 229q129 -6 172 -6q170 0 265.5 86t95.5 301v301q0 215 -95.5 301t-265.5 86 q-43 0 -172 -6v-395h146q39 0 39 -37v-153q0 -39 -39 -39h-146v-439z" />
<glyph unicode="&#xd1;" horiz-adv-x="1458" d="M154 41v1399q0 35 23.5 58.5t58.5 23.5h221q33 0 52 -13.5t38 -52.5l477 -1053q6 -16 16.5 -16t10.5 19v1077q0 39 39 39h176q39 0 39 -39v-1401q0 -33 -24 -57.5t-58 -24.5h-207q-33 0 -49.5 2t-38 19.5t-37.5 52.5l-455 997q-8 16 -18 16t-10 -16v-1030 q0 -16 -11.5 -28.5t-27.5 -12.5h-174q-16 0 -28.5 12.5t-12.5 28.5zM326 1659v43q0 229 229 229q82 0 141 -45l90 -67q53 -41 86 -41q57 0 58 67v43q0 33 28 33h117q29 0 29 -33v-45q0 -229 -227 -229q-80 0 -144 47l-90 68q-55 43 -86 43q-57 0 -57 -70v-43q0 -33 -29 -33 h-117q-28 0 -28 33z" />
<glyph unicode="&#xd2;" horiz-adv-x="1392" d="M113 623v276q0 324 157.5 481.5t426 157.5t426 -157.5t157.5 -481.5v-276q0 -324 -157.5 -481.5t-426 -157.5t-426 157.5t-157.5 481.5zM379 1923q0 14 22 14h217q29 0 54 -30l192 -246q8 -8 8 -21q0 -14 -18 -14h-176q-23 0 -47 27l-244 254q-8 8 -8 16zM399 623 q0 -201 73 -296.5t224.5 -95.5t224 95.5t72.5 296.5v276q0 201 -72.5 296t-224 95t-224.5 -95t-73 -296v-276z" />
<glyph unicode="&#xd3;" horiz-adv-x="1392" d="M113 623v276q0 324 157.5 481.5t426 157.5t426 -157.5t157.5 -481.5v-276q0 -324 -157.5 -481.5t-426 -157.5t-426 157.5t-157.5 481.5zM399 623q0 -201 73 -296.5t224.5 -95.5t224 95.5t72.5 296.5v276q0 201 -72.5 296t-224 95t-224.5 -95t-73 -296v-276zM506 1640 q0 12 8 21l195 246q25 31 53 30h215q23 0 22 -14q0 -8 -8 -16l-241 -254q-25 -27 -50 -27h-176q-18 0 -18 14z" />
<glyph unicode="&#xd4;" horiz-adv-x="1392" d="M113 623v276q0 324 157.5 481.5t426 157.5t426 -157.5t157.5 -481.5v-276q0 -324 -157.5 -481.5t-426 -157.5t-426 157.5t-157.5 481.5zM309 1642q0 12 8 21l189 246q25 31 53 30h266q29 0 54 -30l186 -246q8 -8 8 -21q0 -14 -18 -14h-170q-23 0 -47 27l-146 166 l-145 -166q-25 -27 -49 -27h-170q-19 0 -19 14zM399 623q0 -201 73 -296.5t224.5 -95.5t224 95.5t72.5 296.5v276q0 201 -72.5 296t-224 95t-224.5 -95t-73 -296v-276z" />
<glyph unicode="&#xd5;" horiz-adv-x="1392" d="M113 623v276q0 324 157.5 481.5t426 157.5t426 -157.5t157.5 -481.5v-276q0 -324 -157.5 -481.5t-426 -157.5t-426 157.5t-157.5 481.5zM317 1661v43q0 229 230 229q82 0 141 -45l90 -67q53 -41 86 -41q57 0 58 67v43q0 33 28 33h117q29 0 29 -33v-45q0 -229 -228 -229 q-80 0 -143 47l-90 68q-55 43 -86 43q-57 0 -57 -70v-43q0 -33 -29 -33h-117q-29 0 -29 33zM399 623q0 -201 73 -296.5t224.5 -95.5t224 95.5t72.5 296.5v276q0 201 -72.5 296t-224 95t-224.5 -95t-73 -296v-276z" />
<glyph unicode="&#xd6;" horiz-adv-x="1392" d="M113 623v276q0 324 157.5 481.5t426 157.5t426 -157.5t157.5 -481.5v-276q0 -324 -157.5 -481.5t-426 -157.5t-426 157.5t-157.5 481.5zM362 1688v180q0 16 13.5 28.5t30.5 12.5h147q16 0 29.5 -12.5t13.5 -28.5v-180q0 -16 -13.5 -28.5t-29.5 -12.5h-147q-16 0 -30 12.5 t-14 28.5zM399 623q0 -201 73 -296.5t224.5 -95.5t224 95.5t72.5 296.5v276q0 201 -72.5 296t-224 95t-224.5 -95t-73 -296v-276zM772 1688v180q0 16 13.5 28.5t29.5 12.5h148q16 0 29.5 -12.5t13.5 -28.5v-180q0 -16 -13.5 -28.5t-29.5 -12.5h-148q-16 0 -29.5 12.5 t-13.5 28.5z" />
<glyph unicode="&#xd7;" d="M225 1087q0 10 11 21l100 100q10 10 20 11q16 0 33 -17l256 -256l256 256q16 16 33 17q10 0 20 -11l101 -100q10 -10 10 -21q0 -16 -16 -32l-256 -256l256 -254q14 -14 14 -31q0 -12 -10 -22l-101 -101q-10 -10 -20 -10q-14 0 -31 16l-256 254l-254 -254q-16 -16 -33 -16 q-10 0 -20 10l-100 101q-10 10 -11 20q0 16 17 33l254 254l-256 256q-17 16 -17 32z" />
<glyph unicode="&#xd8;" horiz-adv-x="1392" d="M51 6q0 6 6 17l148 204q-92 152 -92 396v276q0 324 157.5 481.5t425.5 157.5q229 0 373 -111l59 84q14 20 39 21h154q23 0 22 -23q0 -6 -6 -16l-147 -205q90 -154 90 -389v-276q0 -324 -157.5 -481.5t-426.5 -157.5q-225 0 -366 106l-60 -82q-18 -25 -41 -24h-155 q-23 -1 -23 22zM399 623q0 -61 7 -115l503 700q-74 82 -213 82q-152 0 -224.5 -95t-72.5 -296v-276zM487 309q72 -78 209 -78q152 0 224.5 95.5t72.5 296.5v276q0 57 -6 107z" />
<glyph unicode="&#xd9;" horiz-adv-x="1413" d="M143 563v920q0 16 12.5 27.5t28.5 11.5h203q16 0 28.5 -11.5t12.5 -27.5v-920q0 -184 59.5 -264t219 -80t219 80t59.5 264v920q0 16 12.5 27.5t28.5 11.5h203q16 0 28.5 -11.5t12.5 -27.5v-920q0 -580 -563.5 -580t-563.5 580zM375 1923q0 14 22 14h217q29 0 54 -30 l192 -246q8 -8 8 -21q0 -14 -18 -14h-176q-23 0 -47 27l-244 254q-8 8 -8 16z" />
<glyph unicode="&#xda;" horiz-adv-x="1413" d="M143 563v920q0 16 12.5 27.5t28.5 11.5h203q16 0 28.5 -11.5t12.5 -27.5v-920q0 -184 59.5 -264t219 -80t219 80t59.5 264v920q0 16 12.5 27.5t28.5 11.5h203q16 0 28.5 -11.5t12.5 -27.5v-920q0 -580 -563.5 -580t-563.5 580zM555 1640q0 12 8 21l195 246q25 31 53 30 h215q23 0 23 -14q0 -8 -9 -16l-241 -254q-25 -27 -49 -27h-177q-18 0 -18 14z" />
<glyph unicode="&#xdb;" horiz-adv-x="1413" d="M143 563v920q0 16 12.5 27.5t28.5 11.5h203q16 0 28.5 -11.5t12.5 -27.5v-920q0 -184 59.5 -264t219 -80t219 80t59.5 264v920q0 16 12.5 27.5t28.5 11.5h203q16 0 28.5 -11.5t12.5 -27.5v-920q0 -580 -563.5 -580t-563.5 580zM324 1640q0 12 8 21l188 246q25 31 53 30 h267q29 0 53 -30l186 -246q8 -8 8 -21q0 -14 -18 -14h-170q-23 0 -47 27l-145 166l-146 -166q-25 -27 -49 -27h-170q-18 0 -18 14z" />
<glyph unicode="&#xdc;" horiz-adv-x="1413" d="M143 563v920q0 16 12.5 27.5t28.5 11.5h203q16 0 28.5 -11.5t12.5 -27.5v-920q0 -184 59.5 -264t219 -80t219 80t59.5 264v920q0 16 12.5 27.5t28.5 11.5h203q16 0 28.5 -11.5t12.5 -27.5v-920q0 -580 -563.5 -580t-563.5 580zM387 1688v180q0 16 13.5 28.5t29.5 12.5 h148q16 0 29.5 -12.5t13.5 -28.5v-180q0 -16 -13.5 -28.5t-29.5 -12.5h-148q-16 0 -29.5 12.5t-13.5 28.5zM797 1688v180q0 16 13 28.5t30 12.5h147q16 0 29.5 -12.5t13.5 -28.5v-180q0 -16 -13 -28.5t-30 -12.5h-147q-16 0 -29.5 12.5t-13.5 28.5z" />
<glyph unicode="&#xdd;" horiz-adv-x="1259" d="M47 1491q0 31 33 31h227q27 0 39 -33l246 -610q16 -41 35 -41q20 0 37 41l245 610q12 33 39 33h226q35 0 34 -31q0 -4 -4 -16l-311 -711q-51 -119 -125 -150v-573q0 -16 -11.5 -28.5t-27.5 -12.5h-205q-16 0 -27.5 12.5t-11.5 28.5v573q-74 31 -125 150l-309 711 q-4 12 -4 16zM492 1640q0 12 8 21l194 246q25 31 54 30h215q23 0 22 -14q0 -8 -8 -16l-242 -254q-25 -27 -49 -27h-176q-18 0 -18 14z" />
<glyph unicode="&#xde;" horiz-adv-x="1282" d="M154 41v1442q0 39 39 39h206q37 0 37 -39v-129q70 4 170 4q127 0 231.5 -23.5t190.5 -77t134 -148.5t48 -226v-25q0 -135 -48 -232.5t-133 -151.5t-188.5 -78.5t-228.5 -24.5q-4 0 -176 6v-336q0 -41 -37 -41h-206q-16 0 -27.5 12.5t-11.5 28.5zM436 616q61 -4 176 -4 q160 0 237 58.5t77 187.5v25q0 127 -77 180t-237 53q-115 0 -176 -4v-496z" />
<glyph unicode="&#xdf;" horiz-adv-x="1277" d="M123 43v1012q0 518 520 518q229 0 363.5 -105.5t134.5 -330.5v-35q0 -90 -53.5 -169t-137.5 -122q100 -43 158.5 -127t58.5 -192v-39q0 -231 -140 -350t-353 -119q-43 0 -115 10q-41 8 -41 39v151q0 31 35 31q66 0 107.5 3t90 16.5t77 38t47 70.5t18.5 110v39 q0 94 -65.5 152t-194.5 58h-66q-41 0 -41 37v127q0 37 41 37h66q123 0 180 56.5t57 142.5v35q0 92 -55 146t-172 54q-143 0 -194.5 -75.5t-51.5 -204.5v-1014q0 -16 -11 -29.5t-28 -13.5h-194q-16 0 -28.5 13.5t-12.5 29.5z" />
<glyph unicode="&#xe0;" horiz-adv-x="1122" d="M90 326v8q0 178 119 266t381 88h129v90q0 96 -42 131t-138 35q-199 0 -334 -16h-10q-37 0 -37 35v131q0 35 39 43q164 33 342 32q451 0 450 -391v-737q0 -16 -12 -28.5t-29 -12.5h-174q-16 0 -28.5 12.5t-12.5 28.5v33q-147 -90 -289 -90q-152 0 -253 77t-101 265z M225 1581q0 14 23 14h217q29 0 53 -30l193 -246q8 -8 8 -21q0 -14 -19 -14h-176q-23 0 -47 27l-244 254q-8 8 -8 16zM362 326q0 -74 34 -100.5t114 -26.5q104 0 209 57v252h-129q-133 0 -180.5 -41t-47.5 -133v-8z" />
<glyph unicode="&#xe1;" horiz-adv-x="1122" d="M90 326v8q0 178 119 266t381 88h129v90q0 96 -42 131t-138 35q-199 0 -334 -16h-10q-37 0 -37 35v131q0 35 39 43q164 33 342 32q451 0 450 -391v-737q0 -16 -12 -28.5t-29 -12.5h-174q-16 0 -28.5 12.5t-12.5 28.5v33q-147 -90 -289 -90q-152 0 -253 77t-101 265z M362 326q0 -74 34 -100.5t114 -26.5q104 0 209 57v252h-129q-133 0 -180.5 -41t-47.5 -133v-8zM406 1298q0 12 8 21l194 246q25 31 54 30h215q23 0 22 -14q0 -8 -8 -16l-242 -254q-25 -27 -49 -27h-176q-18 0 -18 14z" />
<glyph unicode="&#xe2;" horiz-adv-x="1122" d="M90 326v8q0 178 119 266t381 88h129v90q0 96 -42 131t-138 35q-199 0 -334 -16h-10q-37 0 -37 35v131q0 35 39 43q164 33 342 32q451 0 450 -391v-737q0 -16 -12 -28.5t-29 -12.5h-174q-16 0 -28.5 12.5t-12.5 28.5v33q-147 -90 -289 -90q-152 0 -253 77t-101 265z M184 1298q0 12 9 21l188 246q25 31 53 30h266q29 0 54 -30l186 -246q8 -8 8 -21q0 -14 -18 -14h-170q-23 0 -47 27l-146 166l-145 -166q-25 -27 -49 -27h-170q-19 0 -19 14zM362 326q0 -74 34 -100.5t114 -26.5q104 0 209 57v252h-129q-133 0 -180.5 -41t-47.5 -133v-8z" />
<glyph unicode="&#xe3;" horiz-adv-x="1122" d="M90 326v8q0 178 119 266t381 88h129v90q0 96 -42 131t-138 35q-199 0 -334 -16h-10q-37 0 -37 35v131q0 35 39 43q164 33 342 32q451 0 450 -391v-737q0 -16 -12 -28.5t-29 -12.5h-174q-16 0 -28.5 12.5t-12.5 28.5v33q-147 -90 -289 -90q-152 0 -253 77t-101 265z M178 1329v43q0 229 230 230q82 0 141 -46l90 -67q53 -41 86 -41q57 0 57 68v43q0 33 29 32h117q29 0 28 -32v-46q0 -229 -227 -229q-80 0 -143 47l-90 68q-55 43 -86 43q-57 0 -58 -70v-43q0 -33 -28 -33h-117q-29 0 -29 33zM362 326q0 -74 34 -100.5t114 -26.5 q104 0 209 57v252h-129q-133 0 -180.5 -41t-47.5 -133v-8z" />
<glyph unicode="&#xe4;" horiz-adv-x="1122" d="M90 326v8q0 178 119 266t381 88h129v90q0 96 -42 131t-138 35q-199 0 -334 -16h-10q-37 0 -37 35v131q0 35 39 43q164 33 342 32q451 0 450 -391v-737q0 -16 -12 -28.5t-29 -12.5h-174q-16 0 -28.5 12.5t-12.5 28.5v33q-147 -90 -289 -90q-152 0 -253 77t-101 265z M244 1356v180q0 16 13 28.5t30 12.5h147q16 0 29.5 -12.5t13.5 -28.5v-180q0 -16 -13 -28.5t-30 -12.5h-147q-16 0 -29.5 12.5t-13.5 28.5zM362 326q0 -74 34 -100.5t114 -26.5q104 0 209 57v252h-129q-133 0 -180.5 -41t-47.5 -133v-8zM653 1356v180q0 16 13.5 28.5 t29.5 12.5h148q16 0 29.5 -12.5t13.5 -28.5v-180q0 -16 -13.5 -28.5t-29.5 -12.5h-148q-16 0 -29.5 12.5t-13.5 28.5z" />
<glyph unicode="&#xe5;" horiz-adv-x="1122" d="M90 326v8q0 178 119 266t381 88h129v90q0 96 -42 131t-138 35q-199 0 -334 -16h-10q-37 0 -37 35v131q0 35 39 43q164 33 342 32q451 0 450 -391v-737q0 -16 -12 -28.5t-29 -12.5h-174q-16 0 -28.5 12.5t-12.5 28.5v33q-147 -90 -289 -90q-152 0 -253 77t-101 265z M336 1497q0 94 66.5 160.5t160.5 66.5t159.5 -66.5t65.5 -160.5t-65.5 -159.5t-159.5 -65.5t-160.5 65.5t-66.5 159.5zM362 326q0 -74 34 -100.5t114 -26.5q104 0 209 57v252h-129q-133 0 -180.5 -41t-47.5 -133v-8zM469 1499q0 -41 27.5 -69.5t66.5 -28.5t69 28.5t30 69.5 q0 39 -29 67.5t-70 28.5q-39 0 -66.5 -27.5t-27.5 -68.5z" />
<glyph unicode="&#xe6;" horiz-adv-x="1781" d="M94 344v23q0 170 129 245.5t393 75.5h105v55q0 109 -46 154t-143 45q-211 0 -321 -12h-2h-4q-35 0 -35 35v122q0 37 41 48q158 35 321 34q231 0 345 -135q123 135 329 135q238 0 354.5 -131t116.5 -354v-135q0 -16 -13 -28.5t-30 -12.5h-643v-84q0 -115 64.5 -164 t204.5 -49q158 0 337 18h2h7q35 0 34 -32v-115q0 -39 -38 -49q-174 -49 -385 -49q-217 0 -324 110q-152 -111 -377 -110q-188 0 -305 89t-117 271zM354 344q0 -86 46 -117.5t137 -31.5q119 0 192 28v312h-113q-139 0 -200.5 -38t-61.5 -130v-23zM991 664h424v69 q0 98 -51 161.5t-160 63.5q-106 0 -159.5 -64.5t-53.5 -160.5v-69z" />
<glyph unicode="&#xe7;" horiz-adv-x="958" d="M92 481v191q0 242 129 369.5t338 127.5q162 0 264 -26q27 -6 35 -17.5t8 -35.5v-134q0 -31 -37 -30h-6q-115 14 -264 14q-84 0 -140.5 -61.5t-56.5 -206.5v-191q0 -145 56.5 -206.5t140.5 -61.5q150 0 264 14h6q37 0 37 -30v-134q0 -25 -8 -36t-35 -17q-102 -27 -264 -26 q-209 0 -338 127.5t-129 369.5zM195 -367q0 12 8 21l192 246q25 31 54 30h217q23 0 22 -14q0 -8 -8 -16l-244 -252q-25 -29 -47 -29h-176q-18 0 -18 14z" />
<glyph unicode="&#xe8;" horiz-adv-x="1175" d="M98 498v151q0 242 129 381t363 139q231 0 359 -142t128 -378v-114q0 -51 -41 -52h-667v-6q0 -109 56 -184.5t189 -75.5q162 0 377 21h6q37 0 37 -31v-135q0 -47 -43 -54q-188 -35 -397 -34q-84 0 -165 24.5t-158.5 79.5t-125 161t-47.5 249zM227 1581q0 14 23 14h217 q29 0 53 -30l193 -246q8 -8 8 -21q0 -14 -19 -14h-176q-23 0 -47 27l-243 254q-9 8 -9 16zM371 676h434v8q0 119 -59.5 185.5t-155.5 66.5q-98 0 -158.5 -66.5t-60.5 -185.5v-8z" />
<glyph unicode="&#xe9;" horiz-adv-x="1175" d="M98 498v151q0 242 129 381t363 139q231 0 359 -142t128 -378v-114q0 -51 -41 -52h-667v-6q0 -109 56 -184.5t189 -75.5q162 0 377 21h6q37 0 37 -31v-135q0 -47 -43 -54q-188 -35 -397 -34q-84 0 -165 24.5t-158.5 79.5t-125 161t-47.5 249zM371 676h434v8 q0 119 -59.5 185.5t-155.5 66.5q-98 0 -158.5 -66.5t-60.5 -185.5v-8zM440 1298q0 12 9 21l194 246q25 31 53 30h215q23 0 23 -14q0 -8 -8 -16l-242 -254q-25 -27 -49 -27h-176q-19 0 -19 14z" />
<glyph unicode="&#xea;" horiz-adv-x="1175" d="M98 498v151q0 242 129 381t363 139q231 0 359 -142t128 -378v-114q0 -51 -41 -52h-667v-6q0 -109 56 -184.5t189 -75.5q162 0 377 21h6q37 0 37 -31v-135q0 -47 -43 -54q-188 -35 -397 -34q-84 0 -165 24.5t-158.5 79.5t-125 161t-47.5 249zM205 1298q0 12 8 21l188 246 q25 31 54 30h266q29 0 53 -30l187 -246q8 -8 8 -21q0 -14 -19 -14h-170q-23 0 -47 27l-145 166l-146 -166q-25 -27 -49 -27h-170q-18 0 -18 14zM371 676h434v8q0 119 -59.5 185.5t-155.5 66.5q-98 0 -158.5 -66.5t-60.5 -185.5v-8z" />
<glyph unicode="&#xeb;" horiz-adv-x="1175" d="M98 498v151q0 242 129 381t363 139q231 0 359 -142t128 -378v-114q0 -51 -41 -52h-667v-6q0 -109 56 -184.5t189 -75.5q162 0 377 21h6q37 0 37 -31v-135q0 -47 -43 -54q-188 -35 -397 -34q-84 0 -165 24.5t-158.5 79.5t-125 161t-47.5 249zM264 1350v180q0 16 13.5 28.5 t29.5 12.5h148q16 0 29.5 -12.5t13.5 -28.5v-180q0 -16 -13.5 -28.5t-29.5 -12.5h-148q-16 0 -29.5 12.5t-13.5 28.5zM371 676h434v8q0 119 -59.5 185.5t-155.5 66.5q-98 0 -158.5 -66.5t-60.5 -185.5v-8zM674 1350v180q0 16 13 28.5t30 12.5h147q16 0 29.5 -12.5 t13.5 -28.5v-180q0 -16 -13 -28.5t-30 -12.5h-147q-16 0 -29.5 12.5t-13.5 28.5z" />
<glyph unicode="&#xec;" horiz-adv-x="548" d="M-59 1581q0 14 22 14h217q29 0 53 -30l193 -246q8 -8 8 -21q0 -14 -18 -14h-176q-20 0 -47 27l-244 254q-8 8 -8 16zM139 43v1071q0 16 12.5 28.5t28.5 12.5h189q16 0 28.5 -12.5t12.5 -28.5v-1071q0 -16 -12.5 -29.5t-28.5 -13.5h-189q-16 0 -28.5 13.5t-12.5 29.5z" />
<glyph unicode="&#xed;" horiz-adv-x="548" d="M125 1298q0 12 8 21l195 246q25 31 53 30h215q23 0 22 -14q0 -8 -8 -16l-241 -254q-25 -27 -50 -27h-176q-18 0 -18 14zM139 43v1071q0 16 12.5 28.5t28.5 12.5h189q16 0 28.5 -12.5t12.5 -28.5v-1071h2q0 -16 -12.5 -29.5t-28.5 -13.5h-189q-16 0 -29.5 13.5t-13.5 29.5 z" />
<glyph unicode="&#xee;" horiz-adv-x="548" d="M-106 1298q0 12 8 21l188 246q25 31 53 30h267q29 0 53 -30l186 -246q8 -8 8 -21q0 -14 -18 -14h-170q-23 0 -47 27l-146 166l-145 -166q-25 -27 -49 -27h-170q-18 0 -18 14zM139 43v1071q0 16 12.5 28.5t28.5 12.5h189q16 0 28.5 -12.5t12.5 -28.5v-1071 q0 -16 -12.5 -29.5t-28.5 -13.5h-189q-16 0 -28.5 13.5t-12.5 29.5z" />
<glyph unicode="&#xef;" horiz-adv-x="548" d="M-47 1350v180q0 16 13.5 28.5t29.5 12.5h147q16 0 29.5 -12.5t13.5 -28.5v-180q0 -16 -13 -28.5t-30 -12.5h-147q-16 0 -29.5 12.5t-13.5 28.5zM139 43v1071q0 16 12.5 28.5t28.5 12.5h189q16 0 28.5 -12.5t12.5 -28.5v-1071q0 -16 -12.5 -29.5t-28.5 -13.5h-189 q-16 0 -28.5 13.5t-12.5 29.5zM362 1350v180q0 16 13.5 28.5t30.5 12.5h147q16 0 29.5 -12.5t13.5 -28.5v-180q0 -16 -13.5 -28.5t-29.5 -12.5h-147q-16 0 -30 12.5t-14 28.5z" />
<glyph unicode="&#xf0;" horiz-adv-x="1175" d="M98 518v82q0 262 126 397.5t364 135.5q96 0 149 -29q-63 100 -256 199l-155 -119q-14 -12 -27 -13q-10 0 -23 13l-59 65q-6 6 -6 17q0 18 20 32l93 70q-53 18 -105 31q-33 8 -33 31q0 6 2 10l43 119q8 23 29 22q10 0 16 -2q133 -33 230 -72l174 133q10 8 26.5 8.5 t24.5 -10.5l60 -63q8 -8 8 -16q0 -12 -21 -29l-121 -92q227 -127 323.5 -321.5t96.5 -516.5v-82q0 -262 -125 -398t-362 -136q-250 0 -371 140t-121 394zM371 518q0 -156 52 -230.5t167 -74.5t165 73.5t50 231.5v82q0 156 -51.5 230.5t-166 74.5t-165.5 -73.5t-51 -231.5 v-82z" />
<glyph unicode="&#xf1;" horiz-adv-x="1212" d="M133 43v1071q0 16 12.5 28.5t28.5 12.5h178q16 0 28.5 -12.5t12.5 -28.5v-43q88 57 159 77.5t173 20.5q106 0 179 -33.5t110 -99t51 -142.5t14 -183v-668q0 -16 -12 -29.5t-29 -13.5h-188q-16 0 -28.5 13.5t-12.5 29.5v668q0 141 -29.5 185t-144.5 44q-90 0 -232 -74 v-823q0 -16 -12 -29.5t-29 -13.5h-188q-16 0 -28.5 13.5t-12.5 29.5zM209 1329v43q0 229 229 230q82 0 142 -46l90 -67q53 -41 86 -41q57 0 57 68v43q0 33 29 32h116q29 0 29 -32v-46q0 -229 -227 -229q-80 0 -144 47l-90 68q-55 43 -86 43q-57 0 -57 -70v-43q0 -33 -29 -33 h-116q-29 0 -29 33z" />
<glyph unicode="&#xf2;" horiz-adv-x="1175" d="M98 494v165q0 227 128 368.5t361.5 141.5t361.5 -141t128 -369v-165q0 -227 -128 -368.5t-361.5 -141.5t-361.5 141.5t-128 368.5zM260 1581q0 14 23 14h217q29 0 53 -30l192 -246q8 -8 9 -21q0 -14 -19 -14h-176q-23 0 -47 27l-244 254q-8 8 -8 16zM369 494 q0 -129 56 -203t162.5 -74t163 74t56.5 203v165q0 129 -56.5 203t-163 74t-162.5 -74t-56 -203v-165z" />
<glyph unicode="&#xf3;" horiz-adv-x="1175" d="M98 494v165q0 227 128 368.5t361.5 141.5t361.5 -141t128 -369v-165q0 -227 -128 -368.5t-361.5 -141.5t-361.5 141.5t-128 368.5zM369 494q0 -129 56 -203t162.5 -74t163 74t56.5 203v165q0 129 -56.5 203t-163 74t-162.5 -74t-56 -203v-165zM410 1298q0 12 8 21 l194 246q25 31 54 30h215q23 0 22 -14q0 -8 -8 -16l-242 -254q-25 -27 -49 -27h-176q-18 0 -18 14z" />
<glyph unicode="&#xf4;" horiz-adv-x="1175" d="M98 494v165q0 227 128 368.5t361.5 141.5t361.5 -141t128 -369v-165q0 -227 -128 -368.5t-361.5 -141.5t-361.5 141.5t-128 368.5zM203 1298q0 12 8 21l188 246q25 31 54 30h266q29 0 53 -30l186 -246q8 -8 9 -21q0 -14 -19 -14h-170q-23 0 -47 27l-145 166l-146 -166 q-25 -27 -49 -27h-170q-18 0 -18 14zM369 494q0 -129 56 -203t162.5 -74t163 74t56.5 203v165q0 129 -56.5 203t-163 74t-162.5 -74t-56 -203v-165z" />
<glyph unicode="&#xf5;" horiz-adv-x="1175" d="M98 494v165q0 227 128 368.5t361.5 141.5t361.5 -141t128 -369v-165q0 -227 -128 -368.5t-361.5 -141.5t-361.5 141.5t-128 368.5zM193 1329v43q0 229 229 230q82 0 141 -46l90 -67q53 -41 86 -41q57 0 58 68v43q0 33 28 32h117q29 0 29 -32v-46q0 -229 -228 -229 q-80 0 -143 47l-90 68q-55 43 -86 43q-57 0 -57 -70v-43q0 -33 -29 -33h-117q-28 0 -28 33zM369 494q0 -129 56 -203t162.5 -74t163 74t56.5 203v165q0 129 -56.5 203t-163 74t-162.5 -74t-56 -203v-165z" />
<glyph unicode="&#xf6;" horiz-adv-x="1175" d="M98 494v165q0 227 128 368.5t361.5 141.5t361.5 -141t128 -369v-165q0 -227 -128 -368.5t-361.5 -141.5t-361.5 141.5t-128 368.5zM262 1350v180q0 16 13.5 28.5t29.5 12.5h148q16 0 29.5 -12.5t13.5 -28.5v-180q0 -16 -13.5 -28.5t-29.5 -12.5h-148q-16 0 -29.5 12.5 t-13.5 28.5zM369 494q0 -129 56 -203t162.5 -74t163 74t56.5 203v165q0 129 -56.5 203t-163 74t-162.5 -74t-56 -203v-165zM672 1350v180q0 16 13 28.5t30 12.5h147q16 0 29.5 -12.5t13.5 -28.5v-180q0 -16 -13 -28.5t-30 -12.5h-147q-16 0 -29.5 12.5t-13.5 28.5z" />
<glyph unicode="&#xf7;" d="M190 729v143q0 33 41 33h830q41 0 41 -33v-143q0 -33 -41 -33h-830q-41 0 -41 33zM512 260v211q0 16 12.5 28.5t28.5 12.5h184q16 0 28.5 -12.5t12.5 -28.5v-211q0 -16 -12 -27.5t-29 -11.5h-184q-16 0 -28.5 11.5t-12.5 27.5zM512 1110v211q0 16 12.5 27.5t28.5 11.5 h184q16 0 28.5 -11.5t12.5 -27.5v-211q0 -16 -12 -28.5t-29 -12.5h-184q-16 0 -28.5 12.5t-12.5 28.5z" />
<glyph unicode="&#xf8;" horiz-adv-x="1175" d="M55 -55q0 12 8 22l136 189q-100 131 -101 338v165q0 227 128 368.5t362 141.5q164 0 284 -77l80 110q16 20 33 21h115q16 0 16 -17q0 -12 -8 -22l-133 -185q102 -133 102 -340v-165q0 -227 -128 -368.5t-361 -141.5q-166 0 -287 77l-82 -112q-16 -20 -33 -21h-114 q-17 1 -17 17zM369 494q0 -51 8 -91l348 484q-55 49 -137 49q-106 0 -162.5 -74t-56.5 -203v-165zM449 266q51 -49 139 -49q106 0 162.5 74t56.5 203v165q0 55 -8 95z" />
<glyph unicode="&#xf9;" horiz-adv-x="1212" d="M133 444v668q0 16 12.5 29.5t28.5 13.5h188q16 0 28.5 -13.5t12.5 -29.5v-668q0 -154 48 -196q43 -37 127 -37q78 0 231 82v819q0 16 12.5 29.5t28.5 13.5h188q16 0 28.5 -13.5t12.5 -29.5v-1071q0 -16 -12 -28.5t-29 -12.5h-188q-16 0 -28.5 12.5t-12.5 28.5v47 q-156 -102 -321.5 -102t-251.5 86q-103 102 -103 372zM285 1581q0 14 22 14h217q29 0 54 -30l192 -246q8 -8 8 -21q0 -14 -18 -14h-176q-23 0 -47 27l-244 254q-8 8 -8 16z" />
<glyph unicode="&#xfa;" horiz-adv-x="1212" d="M133 444v668q0 16 12.5 29.5t28.5 13.5h188q16 0 28.5 -13.5t12.5 -29.5v-668q0 -154 48 -196q43 -37 127 -37q78 0 231 82v819q0 16 12.5 29.5t28.5 13.5h188q16 0 28.5 -13.5t12.5 -29.5v-1071q0 -16 -12 -28.5t-29 -12.5h-188q-16 0 -28.5 12.5t-12.5 28.5v47 q-156 -102 -321.5 -102t-251.5 86q-103 102 -103 372zM455 1298q0 12 8 21l194 246q25 31 54 30h215q23 0 22 -14q0 -8 -8 -16l-242 -254q-25 -27 -49 -27h-176q-18 0 -18 14z" />
<glyph unicode="&#xfb;" horiz-adv-x="1212" d="M133 444v668q0 16 12.5 29.5t28.5 13.5h188q16 0 28.5 -13.5t12.5 -29.5v-668q0 -154 48 -196q43 -37 127 -37q78 0 231 82v819q0 16 12.5 29.5t28.5 13.5h188q16 0 28.5 -13.5t12.5 -29.5v-1071q0 -16 -12 -28.5t-29 -12.5h-188q-16 0 -28.5 12.5t-12.5 28.5v47 q-156 -102 -321.5 -102t-251.5 86q-103 102 -103 372zM221 1298q0 12 8 21l189 246q25 31 53 30h266q29 0 54 -30l186 -246q8 -8 8 -21q0 -14 -18 -14h-170q-23 0 -47 27l-146 166l-145 -166q-25 -27 -49 -27h-170q-19 0 -19 14z" />
<glyph unicode="&#xfc;" horiz-adv-x="1212" d="M133 444v668q0 16 12.5 29.5t28.5 13.5h188q16 0 28.5 -13.5t12.5 -29.5v-668q0 -154 48 -196q43 -37 127 -37q78 0 231 82v819q0 16 12.5 29.5t28.5 13.5h188q16 0 28.5 -13.5t12.5 -29.5v-1071q0 -16 -12 -28.5t-29 -12.5h-188q-16 0 -28.5 12.5t-12.5 28.5v47 q-156 -102 -321.5 -102t-251.5 86q-103 102 -103 372zM295 1350v180q0 16 13.5 28.5t29.5 12.5h147q16 0 29.5 -12.5t13.5 -28.5v-180q0 -16 -13 -28.5t-30 -12.5h-147q-16 0 -29.5 12.5t-13.5 28.5zM705 1350v180q0 16 13 28.5t30 12.5h147q16 0 29.5 -12.5t13.5 -28.5 v-180q0 -16 -13.5 -28.5t-29.5 -12.5h-147q-16 0 -29.5 12.5t-13.5 28.5z" />
<glyph unicode="&#xfd;" horiz-adv-x="1146" d="M49 1122q0 33 39 33h207q31 0 39 -37l207 -833q10 -45 28 -45h2h11h6l221 880q8 35 41 35h209q14 0 25.5 -10t11.5 -25q0 -8 -2 -12l-342 -1196q-35 -121 -76 -185.5t-123 -100.5t-219 -36q-129 0 -217 27q-43 12 -43 35v131q0 37 41 37h4q20 0 109 -6.5t122 -6.5 q70 0 106 27t56 105l16 61h-30q-27 0 -47.5 5t-46 20.5t-47 52.5t-38.5 92l-268 938q-2 6 -2 14zM471 1298q0 12 8 21l195 246q25 31 53 30h215q23 0 23 -14q0 -8 -9 -16l-241 -254q-25 -27 -49 -27h-177q-18 0 -18 14z" />
<glyph unicode="&#xfe;" horiz-adv-x="1181" d="M133 -365v1883q0 16 11.5 28.5t27.5 12.5h195q37 0 36 -41v-363q109 14 205 14q231 0 356.5 -136t125.5 -384v-147q0 -246 -122 -382t-360 -136q-131 0 -205 16v-365q0 -41 -36 -41h-193q-16 0 -28.5 12.5t-12.5 28.5zM403 221q98 -16 181 -16q119 0 177 65.5t58 231.5 v147q0 170 -60.5 234.5t-180.5 64.5q-47 0 -175 -16v-711z" />
<glyph unicode="&#xff;" horiz-adv-x="1146" d="M49 1122q0 33 39 33h207q31 0 39 -37l207 -833q10 -45 28 -45h2h11h6l221 880q8 35 41 35h209q14 0 25.5 -10t11.5 -25q0 -8 -2 -12l-342 -1196q-35 -121 -76 -185.5t-123 -100.5t-219 -36q-129 0 -217 27q-43 12 -43 35v131q0 37 41 37h4q20 0 109 -6.5t122 -6.5 q70 0 106 27t56 105l16 61h-30q-27 0 -47.5 5t-46 20.5t-47 52.5t-38.5 92l-268 938q-2 6 -2 14zM264 1350v180q0 16 13.5 28.5t29.5 12.5h148q16 0 29.5 -12.5t13.5 -28.5v-180q0 -16 -13.5 -28.5t-29.5 -12.5h-148q-16 0 -29.5 12.5t-13.5 28.5zM674 1350v180 q0 16 13 28.5t30 12.5h147q16 0 29.5 -12.5t13.5 -28.5v-180q0 -16 -13 -28.5t-30 -12.5h-147q-16 0 -29.5 12.5t-13.5 28.5z" />
<glyph unicode="&#x152;" horiz-adv-x="2027" d="M123 623v276q0 324 157.5 481.5t426.5 157.5q242 0 385 -131q94 131 383 131q205 0 389 -29q23 -4 32 -13t9 -30v-131q0 -16 -12.5 -28.5t-28.5 -12.5h-418q-90 0 -126 -37.5t-36 -138.5v-221h555q16 0 28.5 -12.5t12.5 -28.5v-147q0 -16 -12.5 -28.5t-28.5 -12.5h-555 v-265q0 -100 36 -138t126 -38h418q16 0 28.5 -12t12.5 -29v-131q0 -20 -9.5 -29.5t-31.5 -13.5q-184 -29 -389 -28q-279 0 -383 131q-139 -131 -385 -131q-268 0 -426 157.5t-158 481.5zM410 623q0 -201 72.5 -296.5t224.5 -95.5q295 0 294 342v375q0 342 -294 342 q-152 0 -224.5 -95t-72.5 -296v-276z" />
<glyph unicode="&#x153;" horiz-adv-x="1896" d="M102 494v165q0 227 128 368.5t362 141.5q229 0 358 -151q129 152 357 151q229 0 358 -147.5t129 -372.5v-114q0 -51 -41 -52h-672v-12v-8q4 -106 59.5 -181t170.5 -75q182 0 397 20h6q37 0 37 -30v-125q0 -47 -43 -54q-188 -35 -397 -34q-236 0 -363 147 q-129 -147 -356 -147q-233 0 -361.5 141.5t-128.5 368.5zM373 494q0 -129 56 -203t162.5 -74t163 74t56.5 203v165q0 129 -56.5 203t-163 74t-162.5 -74t-56 -203v-165zM1081 676h445v8q0 129 -59.5 193.5t-159.5 64.5q-96 0 -161 -61.5t-65 -175.5v-13v-16z" />
<glyph unicode="&#x178;" horiz-adv-x="1259" d="M47 1491q0 31 33 31h227q27 0 39 -33l246 -610q16 -41 35 -41q20 0 37 41l245 610q12 33 39 33h226q35 0 34 -31q0 -4 -4 -16l-311 -711q-51 -119 -125 -150v-573q0 -16 -11.5 -28.5t-27.5 -12.5h-205q-16 0 -27.5 12.5t-11.5 28.5v573q-74 31 -125 150l-309 711 q-4 12 -4 16zM317 1677v181q0 16 13.5 28t29.5 12h148q16 0 29.5 -12t13.5 -28v-181q0 -16 -13.5 -28.5t-29.5 -12.5h-148q-16 0 -29.5 12.5t-13.5 28.5zM727 1677v181q0 16 13.5 28t29.5 12h148q16 0 29.5 -12t13.5 -28v-181q0 -16 -13.5 -28.5t-29.5 -12.5h-148 q-16 0 -29.5 12.5t-13.5 28.5z" />
<glyph unicode="&#x2c6;" horiz-adv-x="849" d="M43 1298q0 12 8 21l189 246q25 31 53 30h266q29 0 53 -30l187 -246q8 -8 8 -21q0 -14 -19 -14h-170q-23 0 -47 27l-145 166l-145 -166q-25 -27 -50 -27h-170q-18 0 -18 14z" />
<glyph unicode="&#x2dc;" horiz-adv-x="1015" d="M109 1329v43q0 229 229 230q82 0 141 -46l90 -67q53 -41 86 -41q57 0 58 68v43q0 33 28 32h117q29 0 29 -32v-46q0 -229 -228 -229q-80 0 -143 47l-90 68q-55 43 -86 43q-57 0 -57 -70v-43q0 -33 -29 -33h-117q-28 0 -28 33z" />
<glyph unicode="&#x2013;" horiz-adv-x="632" d="M-31 524v129q0 39 39 39h617q39 0 39 -39v-129q0 -37 -39 -37h-617q-39 0 -39 37z" />
<glyph unicode="&#x2014;" horiz-adv-x="1226" d="M-31 524v129q0 39 39 39h1211q39 0 38 -39v-129q0 -37 -38 -37h-1211q-39 0 -39 37z" />
<glyph unicode="&#x2018;" horiz-adv-x="440" d="M39 1079q0 10 2 17l139 424q10 39 39 39h164q18 0 18 -21q0 -12 -2 -18l-104 -424q-8 -39 -41 -39h-193q-22 -1 -22 22z" />
<glyph unicode="&#x2019;" horiz-adv-x="440" d="M39 1077q0 12 2 19l104 424q8 39 41 39h193q23 0 22 -23q0 -10 -2 -16l-139 -424q-10 -39 -39 -39h-164q-18 0 -18 20z" />
<glyph unicode="&#x201a;" horiz-adv-x="440" d="M23 -170q0 8 2 12l125 430q12 39 40 39h197q29 0 29 -24q0 -2 -4 -15l-179 -430q-16 -41 -38 -41h-142q-30 0 -30 29z" />
<glyph unicode="&#x201c;" horiz-adv-x="851" d="M39 1079q0 10 2 17l139 424q10 39 39 39h164q18 0 18 -21q0 -12 -2 -18l-104 -424q-8 -39 -41 -39h-193q-22 -1 -22 22zM451 1079q0 10 2 17l139 424q10 39 39 39h164q18 0 18 -21q0 -12 -2 -18l-104 -424q-8 -39 -41 -39h-193q-22 -1 -22 22z" />
<glyph unicode="&#x201d;" horiz-adv-x="851" d="M39 1077q0 12 2 19l104 424q8 39 41 39h193q23 0 22 -23q0 -10 -2 -16l-139 -424q-10 -39 -39 -39h-164q-18 0 -18 20zM451 1077q0 12 2 19l104 424q8 39 41 39h193q23 0 22 -23q0 -10 -2 -16l-139 -424q-10 -39 -39 -39h-164q-18 0 -18 20z" />
<glyph unicode="&#x201e;" horiz-adv-x="851" d="M23 -170q0 8 2 12l125 430q12 39 40 39h197q29 0 29 -24q0 -2 -4 -15l-179 -430q-16 -41 -38 -41h-142q-30 0 -30 29zM453 -170q0 8 2 12l125 430q12 39 41 39h196q29 0 29 -24q0 -2 -4 -15l-178 -430q-16 -41 -39 -41h-142q-30 0 -30 29z" />
<glyph unicode="&#x2022;" horiz-adv-x="856" d="M92 751.5q0 139.5 98.5 237.5t237.5 98t237.5 -98t98.5 -237.5t-98.5 -237.5t-237.5 -98t-237.5 98t-98.5 237.5z" />
<glyph unicode="&#x2026;" horiz-adv-x="1439" d="M111 41v231q0 16 12 27.5t29 11.5h184q16 0 28.5 -11t12.5 -28v-231q0 -16 -12.5 -28.5t-28.5 -12.5h-184q-16 0 -28.5 12.5t-12.5 28.5zM588 41v231q0 16 12 27.5t29 11.5h184q16 0 28.5 -11t12.5 -28v-231q0 -16 -12.5 -28.5t-28.5 -12.5h-184q-16 0 -28.5 12.5 t-12.5 28.5zM1065 41v231q0 16 12.5 27.5t28.5 11.5h184q16 0 28.5 -11t12.5 -28v-231q0 -16 -12 -28.5t-29 -12.5h-184q-16 0 -28.5 12.5t-12.5 28.5z" />
<glyph unicode="&#x2039;" horiz-adv-x="823" d="M82 577.5q0 34.5 16 51.5l332 364q27 27 62 27h194q31 0 31 -23q0 -8 -6 -14l-371 -405l371 -406q6 -6 6 -14q0 -23 -31 -23h-194q-35 0 -62 27l-332 364q-16 17 -16 51.5z" />
<glyph unicode="&#x203a;" horiz-adv-x="823" d="M106 158q0 8 7 14l370 406l-370 405q-6 6 -7 14q0 23 31 23h195q35 0 61 -27l332 -364q16 -16 16 -51t-16 -52l-332 -364q-27 -27 -61 -27h-195q-31 0 -31 23z" />
<glyph unicode="&#x20ac;" d="M104 555v98q0 16 12.5 28.5t28.5 12.5h74v140h-74q-16 0 -28.5 12t-12.5 28v99q0 16 12.5 28.5t28.5 12.5h78q12 123 58.5 217t107 150.5t139 93t150.5 50t147 13.5q174 0 297 -33q45 -14 45 -47v-137q0 -43 -39 -43h-6q-193 16 -293 16q-125 0 -209.5 -67.5 t-107.5 -212.5h504q14 0 23.5 -9.5t9.5 -21.5q0 -2 -1 -5t-1 -5l-27 -99q-10 -41 -41 -40h-473v-140h422q14 0 23.5 -9t9.5 -21q0 -2 -1.5 -5.5t-1.5 -5.5l-26 -98q-10 -41 -41 -41h-381q23 -147 107.5 -217t209.5 -70q74 0 295 17h6q39 0 39 -43v-138q0 -33 -45 -47 q-123 -33 -299 -32q-96 0 -188 25.5t-183.5 81.5t-153.5 165t-75 258h-78q-16 0 -28.5 12.5t-12.5 28.5z" />
<glyph unicode="&#x2122;" horiz-adv-x="1667" d="M51 1403v90q0 29 29 29h543q31 0 30 -29v-90q0 -27 -30 -27h-181v-655q0 -10 -8 -19.5t-20 -9.5h-121q-12 0 -20.5 9.5t-8.5 19.5v655h-184q-29 0 -29 27zM721 713v739q0 31 10 42t37 15q223 20 383 21q125 0 195.5 -9.5t130 -42t83 -96t23.5 -168.5v-501q0 -20 -20 -21 h-131q-20 0 -21 21v501q0 102 -27.5 129t-144.5 27v-657q0 -20 -22 -21h-132q-20 0 -20 21v657q-78 0 -172 -8v-649q0 -20 -21 -21h-129q-22 1 -22 21z" />
<glyph unicode="&#xe000;" horiz-adv-x="1155" d="M0 1155h1155v-1155h-1155v1155z" />
<glyph unicode="&#xfb01;" horiz-adv-x="1345" d="M31 1020v94q0 16 12 28.5t29 12.5h182v100q0 186 90 257t264 71q45 0 123 -16q37 -10 37 -33v-121q0 -35 -31 -35h-92q-74 0 -97.5 -23.5t-23.5 -99.5v-100h641q16 0 28.5 -12.5t12.5 -28.5v-1071q0 -16 -12 -29.5t-29 -13.5h-188q-16 0 -28.5 13.5t-12.5 29.5v909h-412 v-909q0 -16 -12 -29.5t-29 -13.5h-186q-16 0 -29.5 13.5t-13.5 29.5v909l-182 29q-41 8 -41 39zM930 1350v180q0 16 13 28.5t30 12.5h198q16 0 28.5 -12.5t12.5 -28.5v-180q0 -16 -12 -28.5t-29 -12.5h-198q-16 0 -29.5 12.5t-13.5 28.5z" />
<glyph unicode="&#xfb02;" horiz-adv-x="1349" d="M31 1020v94q0 16 12 28.5t29 12.5h182v100q0 195 89 261.5t327 66.5q55 0 178 -7t147 -17h172q16 0 27.5 -12.5t11.5 -28.5v-1475q0 -16 -11 -29.5t-28 -13.5h-190q-16 0 -28.5 13.5t-12.5 29.5v1335h-229q-119 0 -151 -22.5t-32 -100.5v-100h197q16 0 28.5 -12.5 t12.5 -28.5v-123q0 -16 -12.5 -27.5t-28.5 -11.5h-197v-909q0 -16 -12 -29.5t-29 -13.5h-186q-16 0 -29.5 13.5t-13.5 29.5v909l-182 29q-41 8 -41 39z" />
<glyph unicode="&#xfb03;" horiz-adv-x="2050" d="M31 1020v94q0 16 12 28.5t29 12.5h182v100q0 186 90 257t264 71q45 0 123 -16q37 -10 37 -33v-121q0 -35 -31 -35h-92q-74 0 -97.5 -23.5t-23.5 -99.5v-100h422v100q0 186 90 257t264 71q45 0 123 -16q37 -10 37 -33v-121q0 -35 -30 -35h-93q-74 0 -97 -23.5t-23 -99.5 v-100h653q16 0 28.5 -12.5t12.5 -28.5v-1071q0 -16 -12.5 -29.5t-28.5 -13.5h-189q-16 0 -28.5 13.5t-12.5 29.5v909h-423v-909q0 -16 -12.5 -29.5t-28.5 -13.5h-187q-16 0 -29.5 13.5t-13.5 29.5v909h-422v-909q0 -16 -12 -29.5t-29 -13.5h-186q-16 0 -29.5 13.5 t-13.5 29.5v909l-182 29q-41 8 -41 39zM1634 1350v180q0 16 13.5 28.5t29.5 12.5h199q16 0 28.5 -12.5t12.5 -28.5v-180q0 -16 -12.5 -28.5t-28.5 -12.5h-199q-16 0 -29.5 12.5t-13.5 28.5z" />
<glyph unicode="&#xfb04;" horiz-adv-x="2041" d="M31 1020v94q0 16 12 28.5t29 12.5h182v100q0 186 90 257t264 71q45 0 123 -16q37 -10 37 -33v-121q0 -35 -31 -35h-92q-74 0 -97.5 -23.5t-23.5 -99.5v-100h422v100q0 195 89 261.5t327 66.5q55 0 178 -7t148 -17h172q16 0 27 -12.5t11 -28.5v-1475q0 -16 -11 -29.5 t-27 -13.5h-191q-16 0 -28.5 13.5t-12.5 29.5v1335h-229q-119 0 -150.5 -22.5t-31.5 -100.5v-100h196q16 0 28.5 -12.5t12.5 -28.5v-123q0 -16 -12 -27.5t-29 -11.5h-196v-909q0 -16 -12.5 -29.5t-28.5 -13.5h-187q-16 0 -29.5 13.5t-13.5 29.5v909h-422v-909 q0 -16 -12 -29.5t-29 -13.5h-186q-16 0 -29.5 13.5t-13.5 29.5v909l-182 29q-41 8 -41 39z" />
</font>
</defs>
</svg>
