<?xml version="1.0" encoding="utf-8"?>
<!-- Generator: Adobe Illustrator 15.1.0, SVG Export Plug-In . SVG Version: 6.00 Build 0)  -->
<!DOCTYPE svg PUBLIC "-//W3C//DTD SVG 1.1//EN" "http://www.w3.org/Graphics/SVG/1.1/DTD/svg11.dtd">
<svg version="1.1" id="Layer_1" xmlns="http://www.w3.org/2000/svg" xmlns:xlink="http://www.w3.org/1999/xlink" x="0px" y="0px"
	 width="16px" height="21px" viewBox="0 0 16 21" enable-background="new 0 0 16 21" xml:space="preserve">
<g>
	<path fill="#FFFFFF" d="M13.794,12.422V9.673V9.635H2.269c-0.024,0-0.044-0.011-0.062-0.028v0.028v2.826v2.324
		c0,0.576,0.149,1.002,0.441,1.266c0.449,0.404,1.153,0.35,1.159,0.35l0.059-0.004h8.316c0.497,0,0.868-0.133,1.135-0.404
		c0.479-0.49,0.477-1.281,0.477-1.289V12.422z M13.794,14.703c0,0.008,0.003,0.799-0.477,1.289
		c-0.267,0.271-0.638,0.404-1.135,0.404H3.866L3.808,16.4c-0.006,0-0.71,0.055-1.159-0.35c-0.292-0.264-0.441-0.689-0.441-1.266
		v-2.324V9.635V9.607c0.018,0.018,0.037,0.028,0.062,0.028h11.525v0.038v2.749V14.703z M14.916,12.422V9.673V7.416
		c0.002-0.051,0.017-1.267-0.797-2.098c-0.482-0.494-1.134-0.743-1.937-0.743h-0.115v1.839c0.24,0.162,0.399,0.437,0.399,0.748
		c0,0.497-0.403,0.899-0.899,0.899c-0.497,0-0.899-0.402-0.899-0.899c0-0.293,0.14-0.553,0.356-0.717v-1.87H4.977v1.87
		c0.217,0.164,0.356,0.424,0.356,0.717c0,0.497-0.402,0.899-0.899,0.899S3.534,7.659,3.534,7.162c0-0.312,0.158-0.586,0.398-0.748
		V4.575H3.89C3.68,4.558,2.658,4.527,1.898,5.21c-0.54,0.485-0.814,1.191-0.814,2.099v2.326v2.826v2.324
		c0,0.91,0.274,1.615,0.814,2.102c0.63,0.564,1.441,0.641,1.818,0.641c0.077,0,0.137-0.006,0.173-0.006h8.293
		c0.803,0,1.454-0.252,1.937-0.742c0.813-0.832,0.799-2.049,0.797-2.09V12.422z M13.317,15.992
		c-0.267,0.271-0.638,0.404-1.135,0.404H3.866L3.808,16.4c-0.006,0-0.71,0.055-1.159-0.35c-0.292-0.264-0.441-0.689-0.441-1.266
		v-2.324V9.635V9.607c0.018,0.018,0.037,0.028,0.062,0.028h11.525v0.038v2.749v2.281C13.794,14.711,13.797,15.502,13.317,15.992z
		 M8.311,14.686v0.439c0,0.051-0.042,0.092-0.093,0.092H7.704c-0.051,0-0.093-0.041-0.093-0.092v-0.416
		c-0.233-0.014-0.425-0.047-0.593-0.088c-0.047-0.016-0.089-0.043-0.089-0.094V14.07c0-0.051,0.042-0.09,0.089-0.09
		c0.004,0,0.004,0,0.009,0c0.191,0.025,0.663,0.057,0.882,0.057c0.322,0,0.42-0.111,0.42-0.326c0-0.135-0.065-0.211-0.308-0.355
		l-0.644-0.381c-0.435-0.258-0.555-0.553-0.555-0.893c0-0.424,0.199-0.773,0.788-0.877v-0.4c0-0.051,0.042-0.094,0.093-0.094h0.514
		c0.051,0,0.093,0.043,0.093,0.094v0.382c0.275,0.018,0.555,0.055,0.681,0.088c0.047,0.014,0.089,0.043,0.089,0.09v0.461
		c0,0.047-0.038,0.084-0.084,0.084c-0.005,0-0.005,0-0.01,0c-0.289-0.027-0.671-0.051-0.988-0.051c-0.257,0-0.359,0.074-0.359,0.246
		c0,0.117,0.062,0.191,0.313,0.328l0.591,0.32c0.48,0.262,0.635,0.568,0.635,0.947C9.178,14.115,8.949,14.555,8.311,14.686z"/>
</g>
</svg>
