<?xml version="1.0" encoding="utf-8"?>
<!-- Generator: Adobe Illustrator 15.1.0, SVG Export Plug-In . SVG Version: 6.00 Build 0)  -->
<!DOCTYPE svg PUBLIC "-//W3C//DTD SVG 1.1//EN" "http://www.w3.org/Graphics/SVG/1.1/DTD/svg11.dtd">
<svg version="1.1" id="Layer_1" xmlns="http://www.w3.org/2000/svg" xmlns:xlink="http://www.w3.org/1999/xlink" x="0px" y="0px"
	 width="16px" height="21px" viewBox="0 0 16 21" enable-background="new 0 0 16 21" xml:space="preserve">
<path fill="#FFFFFF" d="M15.243,7.952L15.243,7.952H0.78c-0.268,0-0.502-0.178-0.579-0.434C0.125,7.26,0.23,6.984,0.457,6.84
	l7.23-4.597c0.198-0.124,0.45-0.124,0.647,0l7.212,4.585c0.179,0.104,0.301,0.299,0.301,0.521
	C15.847,7.682,15.575,7.952,15.243,7.952z M2.851,6.746h10.321l-5.161-3.28L2.851,6.746z"/>
<path fill="#FFFFFF" d="M15.321,9.808H0.701c-0.334,0-0.604-0.27-0.604-0.603c0-0.333,0.27-0.603,0.604-0.603h14.62
	c0.332,0,0.603,0.27,0.603,0.603C15.924,9.538,15.653,9.808,15.321,9.808z"/>
<path fill="#FFFFFF" d="M15.321,17.779h-0.525v-5.771c0-0.107-0.034-0.201-0.084-0.289h0.535c0.331,0,0.604-0.27,0.604-0.603
	c0-0.332-0.272-0.603-0.604-0.603h-2.106c-0.335,0-0.602,0.271-0.602,0.603c0,0.333,0.267,0.603,0.602,0.603h0.534
	c-0.048,0.088-0.084,0.182-0.084,0.289v5.771H10.67v-5.771c0-0.107-0.035-0.201-0.083-0.289h0.535c0.331,0,0.603-0.27,0.603-0.603
	c0-0.332-0.271-0.603-0.603-0.603H9.014c-0.333,0-0.604,0.271-0.604,0.603c0,0.333,0.271,0.603,0.604,0.603h0.533
	c-0.048,0.088-0.083,0.182-0.083,0.289v5.771H6.543v-5.771c0-0.107-0.034-0.201-0.083-0.289h0.534c0.334,0,0.603-0.27,0.603-0.603
	c0-0.332-0.269-0.603-0.603-0.603H4.887c-0.332,0-0.603,0.271-0.603,0.603c0,0.333,0.271,0.603,0.603,0.603h0.535
	c-0.048,0.088-0.083,0.182-0.083,0.289v5.771H2.417v-5.771c0-0.107-0.035-0.201-0.084-0.289h0.534c0.333,0,0.603-0.27,0.603-0.603
	c0-0.332-0.27-0.603-0.603-0.603H0.76c-0.333,0-0.604,0.271-0.604,0.603c0,0.333,0.271,0.603,0.604,0.603h0.534
	c-0.048,0.088-0.083,0.182-0.083,0.289v5.771h-0.51c-0.334,0-0.604,0.271-0.604,0.604c0,0.33,0.27,0.602,0.604,0.602h14.62
	c0.332,0,0.603-0.271,0.603-0.602C15.924,18.05,15.653,17.779,15.321,17.779z"/>
</svg>
