<?xml version="1.0" encoding="utf-8"?>
<!-- Generator: Adobe Illustrator 15.1.0, SVG Export Plug-In . SVG Version: 6.00 Build 0)  -->
<!DOCTYPE svg PUBLIC "-//W3C//DTD SVG 1.1//EN" "http://www.w3.org/Graphics/SVG/1.1/DTD/svg11.dtd">
<svg version="1.1" id="Layer_1" xmlns="http://www.w3.org/2000/svg" xmlns:xlink="http://www.w3.org/1999/xlink" x="0px" y="0px"
	 width="16px" height="21px" viewBox="0 0 16 21" enable-background="new 0 0 16 21" xml:space="preserve">
<g>
	<g>
		<path fill="#FFFFFF" d="M8.05,4.635c1.83,0,3.551,0.712,4.844,2.006c1.295,1.293,2.007,3.015,2.007,4.846
			c0,1.828-0.712,3.549-2.007,4.843c-1.293,1.295-3.014,2.006-4.844,2.006s-3.551-0.711-4.846-2.006
			c-1.293-1.294-2.005-3.015-2.005-4.843c0-1.831,0.712-3.552,2.005-4.846C4.499,5.347,6.22,4.635,8.05,4.635 M8.05,3.602
			c-4.355,0-7.884,3.529-7.884,7.885c0,4.354,3.529,7.882,7.884,7.882c4.354,0,7.884-3.528,7.884-7.882
			C15.934,7.131,12.404,3.602,8.05,3.602L8.05,3.602z"/>
	</g>
	<g>
		<defs>
			<path id="SVGID_1_" d="M15.934,11.487c0,4.354-3.529,7.882-7.884,7.882c-4.355,0-7.884-3.528-7.884-7.882
				c0-4.356,3.529-7.885,7.884-7.885C12.404,3.602,15.934,7.131,15.934,11.487z"/>
		</defs>
		<clipPath id="SVGID_2_">
			<use xlink:href="#SVGID_1_"  overflow="visible"/>
		</clipPath>
		<g clip-path="url(#SVGID_2_)">
			<g>
				<path fill="#FFFFFF" d="M1.313,18.4c-3.057-4.588-3.057-9.241,0-13.83l0.859,0.573c-2.843,4.268-2.843,8.417,0,12.685
					L1.313,18.4z"/>
			</g>
			<g>
				<path fill="#FFFFFF" d="M4.398,19.666c-0.746-2.714-1.122-5.466-1.122-8.179c0-2.716,0.376-5.468,1.122-8.181L5.394,3.58
					c-1.44,5.245-1.44,10.565,0,15.813L4.398,19.666z"/>
			</g>
			<g>
				<rect x="7.533" y="2.972" fill="#FFFFFF" width="1.033" height="17.028"/>
			</g>
			<g>
				<path fill="#FFFFFF" d="M11.702,19.666l-0.997-0.273c1.439-5.247,1.439-10.567,0-15.813l0.997-0.274
					c0.743,2.713,1.121,5.465,1.121,8.181C12.823,14.2,12.445,16.952,11.702,19.666z"/>
			</g>
			<g>
				<path fill="#FFFFFF" d="M14.786,18.4l-0.86-0.572c2.844-4.268,2.844-8.417,0-12.685l0.86-0.573
					C17.843,9.159,17.843,13.813,14.786,18.4z"/>
			</g>
		</g>
	</g>
</g>
</svg>
