<?xml version="1.0" encoding="utf-8"?>
<!-- Generator: Adobe Illustrator 15.1.0, SVG Export Plug-In . SVG Version: 6.00 Build 0)  -->
<!DOCTYPE svg PUBLIC "-//W3C//DTD SVG 1.1//EN" "http://www.w3.org/Graphics/SVG/1.1/DTD/svg11.dtd">
<svg version="1.1" id="Layer_1" xmlns="http://www.w3.org/2000/svg" xmlns:xlink="http://www.w3.org/1999/xlink" x="0px" y="0px"
	 width="16px" height="21px" viewBox="0 0 16 21" enable-background="new 0 0 16 21" xml:space="preserve">
<g>
	<g>
		<path fill="#FFFFFF" d="M7.433,13.988H6.911c-0.112,0-0.204-0.092-0.204-0.204v-3.4H3.204v3.4c0,0.112-0.092,0.204-0.205,0.204
			H2.477c-0.112,0-0.205-0.092-0.205-0.204V6.585c0-0.112,0.092-0.206,0.205-0.206H3c0.112,0,0.205,0.094,0.205,0.206v2.97h3.502
			v-2.97c0-0.112,0.092-0.206,0.204-0.206h0.522c0.112,0,0.205,0.094,0.205,0.206v7.199C7.638,13.896,7.545,13.988,7.433,13.988z"/>
		<path fill="#FFFFFF" d="M10.654,14.059c-0.778,0-1.567-0.05-1.865-0.101c-0.132-0.021-0.214-0.104-0.214-0.258V6.667
			c0-0.144,0.082-0.236,0.214-0.256c0.297-0.051,1.086-0.102,1.865-0.102c1.893,0,3.103,0.973,3.103,3.184v1.382
			C13.757,13.065,12.547,14.059,10.654,14.059z M12.824,9.493c0-1.854-0.942-2.386-2.17-2.386c-0.482,0-0.799,0.011-1.137,0.031
			v6.103c0.327,0.019,0.654,0.019,1.137,0.019c1.228,0,2.17-0.541,2.17-2.385V9.493z"/>
	</g>
	<g>
		<path fill="#FFFFFF" d="M14.036,16.056H1.992c-1.1,0-1.992-0.894-1.992-1.993V6.305c0-1.099,0.893-1.992,1.992-1.992h12.044
			c1.099,0,1.993,0.894,1.993,1.992v7.757C16.029,15.162,15.135,16.056,14.036,16.056z M1.992,5.178
			c-0.622,0-1.127,0.506-1.127,1.127v7.757c0,0.623,0.505,1.128,1.127,1.128h12.044c0.622,0,1.129-0.505,1.129-1.128V6.305
			c0-0.621-0.507-1.127-1.129-1.127H1.992z"/>
	</g>
</g>
</svg>
