<?xml version="1.0" encoding="utf-8"?>
<!-- Generator: Adobe Illustrator 15.1.0, SVG Export Plug-In . SVG Version: 6.00 Build 0)  -->
<!DOCTYPE svg PUBLIC "-//W3C//DTD SVG 1.1//EN" "http://www.w3.org/Graphics/SVG/1.1/DTD/svg11.dtd">
<svg version="1.1" id="Layer_1" xmlns="http://www.w3.org/2000/svg" xmlns:xlink="http://www.w3.org/1999/xlink" x="0px" y="0px"
	 width="16px" height="21px" viewBox="0 0 16 21" enable-background="new 0 0 16 21" xml:space="preserve">
<g>
	<path fill="#FFFFFF" d="M4.56,10.905L3.417,8.52h0.152c-0.327-0.38-0.59-0.819-0.771-1.301H1.494c-0.079,0-0.116,0.057-0.081,0.128
		L2.21,9.014C2.807,9.848,3.617,10.506,4.56,10.905z"/>
	<path fill="#FFFFFF" d="M11.008,1.82c-0.099,0-0.197,0.004-0.291,0.013c-1.01-1.113-2.449-1.81-4.049-1.81
		c-3.048,0-5.521,2.533-5.521,5.655c0,1.248,0.395,2.401,1.063,3.336L1.413,7.348C1.378,7.276,1.415,7.219,1.494,7.219h1.304
		C2.618,6.74,2.52,6.222,2.52,5.678c0-2.362,1.862-4.282,4.148-4.282c0.95,0,1.825,0.331,2.525,0.887
		c-1.22,0.666-2.051,1.982-2.051,3.497c0,0.508,0.094,0.995,0.264,1.44H2.798C2.979,7.701,3.242,8.14,3.568,8.52h4.257h0.283h0.11
		h1.549h0.105h1.567h0.122h0.953l-0.52,1.087l-1.834,3.824l-0.067,0.141l-0.056,0.116l-2.072,4.326l-2.073-4.326l-0.056-0.116
		l-0.067-0.141L4.56,10.905c-0.942-0.399-1.753-1.058-2.35-1.892l2.387,4.981c0.034,0.07,0.09,0.186,0.124,0.257l3.186,6.647
		c0.016,0.032,0.039,0.052,0.062,0.052c0.021,0,0.044-0.02,0.061-0.052l3.186-6.647c0.032-0.071,0.088-0.187,0.122-0.257
		l2.876-6.005c0.416-0.63,0.657-1.393,0.657-2.21C14.869,3.593,13.141,1.82,11.008,1.82z M13.083,7.219H8.93
		c-0.272-0.411-0.432-0.907-0.432-1.44c0-1.11,0.693-2.06,1.658-2.417c0.266-0.097,0.552-0.152,0.852-0.152
		c0.231,0,0.458,0.033,0.673,0.095c1.056,0.301,1.833,1.297,1.833,2.474C13.514,6.312,13.354,6.808,13.083,7.219z"/>
</g>
</svg>
